<svg width="53" height="52" viewBox="0 0 53 52" fill="none" xmlns="http://www.w3.org/2000/svg">
<path d="M3.16877 26.0001C3.16814 21.6184 4.4015 17.325 6.72762 13.6117C9.05375 9.8984 12.3786 6.91523 16.3214 5.00381C20.2643 3.09238 24.6657 2.32998 29.0217 2.8039C33.3777 3.27781 37.5123 4.96889 40.9518 7.68349H37.4025C37.095 7.68647 36.8012 7.81069 36.5848 8.02916C36.3684 8.24762 36.2471 8.54267 36.2471 8.85014C36.2471 9.15761 36.3684 9.45265 36.5848 9.67112C36.8012 9.88958 37.095 10.0138 37.4025 10.0168H44.0021C44.3115 10.0168 44.6082 9.89387 44.827 9.67507C45.0458 9.45627 45.1688 9.15951 45.1688 8.85008V2.25028C45.1702 2.09613 45.1412 1.9432 45.0832 1.80035C45.0253 1.65749 44.9396 1.52754 44.8311 1.41801C44.7226 1.30847 44.5935 1.22152 44.4512 1.16218C44.3089 1.10284 44.1563 1.07228 44.0021 1.07228C43.8479 1.07228 43.6953 1.10284 43.553 1.16218C43.4107 1.22152 43.2816 1.30847 43.1731 1.41801C43.0647 1.52754 42.979 1.65749 42.921 1.80035C42.863 1.9432 42.834 2.09613 42.8355 2.25028V6.20091C37.7483 2.00433 31.2409 -0.0730798 24.6631 0.399539C18.0853 0.872157 11.9418 3.85854 7.50682 8.73929C3.07183 13.62 0.68568 20.0206 0.843275 26.6135C1.00087 33.2064 3.69012 39.4856 8.35325 44.1489C8.46111 44.2593 8.5898 44.3472 8.73187 44.4075C8.87394 44.4677 9.02656 44.4992 9.18088 44.5001C9.33521 44.501 9.48818 44.4713 9.63094 44.4126C9.77369 44.354 9.90339 44.2676 10.0125 44.1585C10.1216 44.0493 10.208 43.9196 10.2667 43.7769C10.3253 43.6341 10.3551 43.4812 10.3542 43.3268C10.3533 43.1725 10.3218 43.0199 10.2615 42.8778C10.2012 42.7358 10.1133 42.6071 10.003 42.4992C7.82947 40.3375 6.10632 37.7663 4.93323 34.9342C3.76014 32.1021 3.16042 29.0655 3.16877 26.0001Z" fill="#EBEBEB"/>
<path d="M16.3073 46.9947C15.6454 46.6729 14.9902 46.3145 14.3604 45.9306C14.0963 45.7694 13.779 45.7197 13.4783 45.7925C13.1775 45.8652 12.918 46.0544 12.7568 46.3185C12.5956 46.5826 12.5459 46.8999 12.6186 47.2007C12.6914 47.5014 12.8806 47.7609 13.1447 47.9221C13.838 48.3454 14.5592 48.739 15.2878 49.0933C15.4256 49.1603 15.5752 49.1994 15.7282 49.2085C15.8811 49.2177 16.0343 49.1966 16.1791 49.1465C16.3239 49.0964 16.4574 49.0183 16.572 48.9166C16.6866 48.8149 16.78 48.6917 16.847 48.5539C16.9139 48.4161 16.9531 48.2664 16.9622 48.1135C16.9713 47.9606 16.9502 47.8074 16.9001 47.6626C16.8501 47.5178 16.7719 47.3843 16.6702 47.2697C16.5686 47.1551 16.4453 47.0617 16.3075 46.9947H16.3073Z" fill="#EBEBEB"/>
<path d="M47.505 15.8249C47.5718 15.9628 47.6651 16.0862 47.7795 16.188C47.894 16.2898 48.0274 16.3681 48.1722 16.4184C48.3169 16.4687 48.4701 16.4899 48.6231 16.481C48.776 16.4721 48.9257 16.4331 49.0636 16.3663C49.2015 16.2995 49.3249 16.2062 49.4267 16.0917C49.5285 15.9773 49.6068 15.8439 49.6571 15.6991C49.7074 15.5544 49.7286 15.4012 49.7197 15.2482C49.7108 15.0953 49.6718 14.9456 49.605 14.8077C49.2535 14.0813 48.8605 13.3602 48.4372 12.664C48.3576 12.533 48.2529 12.4191 48.1292 12.3286C48.0056 12.2381 47.8653 12.1729 47.7164 12.1367C47.4157 12.0634 47.0983 12.1126 46.8339 12.2735C46.5695 12.4343 46.3798 12.6936 46.3066 12.9943C46.2334 13.295 46.2826 13.6124 46.4434 13.8768C46.8282 14.5098 47.1854 15.1652 47.505 15.8249Z" fill="#EBEBEB"/>
<path d="M29.271 49.1699C28.5344 49.2574 27.7893 49.3095 27.0556 49.3272C26.7518 49.3389 26.4645 49.4686 26.255 49.6889C26.0454 49.9092 25.9301 50.2025 25.9337 50.5065C25.9372 50.8105 26.0593 51.1011 26.2739 51.3165C26.4885 51.5318 26.7787 51.6549 27.0827 51.6594C27.0918 51.6594 27.1015 51.6594 27.1106 51.6589C27.9172 51.64 28.7358 51.5823 29.5447 51.4868C29.8518 51.4502 30.1317 51.2933 30.3231 51.0504C30.5145 50.8076 30.6016 50.4987 30.5654 50.1916C30.5291 49.8845 30.3725 49.6044 30.1299 49.4128C29.8872 49.2211 29.5784 49.1336 29.2713 49.1695L29.271 49.1699Z" fill="#EBEBEB"/>
<path d="M22.6292 49.0118C21.9035 48.8905 21.1737 48.7327 20.4605 48.5415C20.1615 48.4616 19.843 48.5037 19.575 48.6587C19.3071 48.8136 19.1117 49.0686 19.0318 49.3676C18.9518 49.6666 18.994 49.9851 19.1489 50.253C19.3038 50.521 19.5588 50.7164 19.8578 50.7963C20.6428 51.006 21.4461 51.1796 22.2453 51.313C22.3964 51.3382 22.551 51.3334 22.7002 51.2988C22.8495 51.2643 22.9905 51.2007 23.1152 51.1117C23.2399 51.0226 23.3458 50.9099 23.4269 50.78C23.508 50.65 23.5627 50.5053 23.588 50.3542C23.6132 50.2031 23.6084 50.0485 23.5738 49.8992C23.5393 49.75 23.4757 49.609 23.3866 49.4843C23.2976 49.3596 23.1849 49.2537 23.0549 49.1726C22.925 49.0914 22.7803 49.0367 22.6292 49.0115V49.0118Z" fill="#EBEBEB"/>
<path d="M51.0236 25.4374C50.7143 25.4298 50.4147 25.5454 50.1906 25.7587C49.9665 25.972 49.8362 26.2656 49.8285 26.5749C49.8096 27.3126 49.7562 28.0577 49.6683 28.7902C49.6318 29.0975 49.7187 29.4067 49.91 29.6499C50.1013 29.8932 50.3814 30.0505 50.6886 30.0873C50.7351 30.0925 50.7819 30.0952 50.8287 30.0953C51.1139 30.0949 51.389 29.9901 51.6022 29.8006C51.8153 29.6112 51.9517 29.3503 51.9857 29.0672C52.0814 28.2623 52.1407 27.4436 52.1607 26.633C52.1646 26.4799 52.1383 26.3274 52.0832 26.1844C52.0282 26.0414 51.9455 25.9106 51.8399 25.7996C51.7343 25.6886 51.6079 25.5994 51.4678 25.5373C51.3277 25.4751 51.1768 25.4412 51.0236 25.4374Z" fill="#EBEBEB"/>
<path d="M47.443 38.7822C47.1869 38.6087 46.8725 38.5438 46.5687 38.6018C46.2648 38.6598 45.9964 38.8359 45.8223 39.0915C45.4075 39.7016 44.9592 40.2993 44.4887 40.8671C44.3886 40.9848 44.3129 41.1212 44.266 41.2683C44.2191 41.4155 44.2019 41.5705 44.2154 41.7244C44.2289 41.8782 44.2728 42.0279 44.3445 42.1646C44.4163 42.3014 44.5145 42.4225 44.6335 42.521C44.7525 42.6195 44.8898 42.6934 45.0376 42.7384C45.1853 42.7834 45.3405 42.7986 45.4942 42.7831C45.6479 42.7676 45.7969 42.7218 45.9328 42.6482C46.0686 42.5747 46.1884 42.4749 46.2854 42.3546C46.8026 41.7303 47.2965 41.0734 47.7522 40.4024C47.8383 40.2757 47.8986 40.1333 47.9296 39.9833C47.9607 39.8334 47.9619 39.6787 47.9331 39.5283C47.9044 39.3778 47.8464 39.2345 47.7623 39.1065C47.6782 38.9785 47.5697 38.8683 47.443 38.7822Z" fill="#EBEBEB"/>
<path d="M49.0508 19.9811C49.2399 20.6915 49.3972 21.4212 49.5185 22.1503C49.5637 22.4227 49.704 22.6702 49.9145 22.8488C50.1249 23.0275 50.3919 23.1258 50.668 23.1261C50.7323 23.126 50.7965 23.1207 50.86 23.1102C51.0111 23.0851 51.1559 23.0305 51.2859 22.9495C51.416 22.8685 51.5288 22.7626 51.618 22.638C51.7071 22.5133 51.7708 22.3724 51.8054 22.2231C51.8401 22.0738 51.845 21.9192 51.8198 21.768C51.6871 20.966 51.5136 20.1624 51.3058 19.3806C51.2262 19.0816 51.031 18.8265 50.7633 18.6714C50.4955 18.5162 50.1772 18.4738 49.8782 18.5535C49.5792 18.6331 49.324 18.8282 49.1689 19.096C49.0138 19.3637 48.9714 19.6821 49.051 19.9811H49.0508Z" fill="#EBEBEB"/>
<path d="M41.35 44.0018C40.7798 44.4736 40.1823 44.9218 39.5745 45.3337C39.4477 45.4196 39.339 45.5297 39.2548 45.6577C39.1705 45.7856 39.1123 45.9289 39.0834 46.0793C39.0545 46.2298 39.0556 46.3844 39.0865 46.5345C39.1174 46.6845 39.1775 46.827 39.2635 46.9538C39.3494 47.0806 39.4595 47.1892 39.5874 47.2735C39.7154 47.3577 39.8587 47.416 40.0091 47.4448C40.1595 47.4737 40.3142 47.4727 40.4642 47.4418C40.6143 47.4109 40.7568 47.3508 40.8836 47.2648C41.5524 46.8119 42.2092 46.3192 42.8369 45.8008C43.0755 45.6037 43.2259 45.3198 43.2552 45.0117C43.2845 44.7036 43.1901 44.3965 42.993 44.1579C42.7958 43.9193 42.5119 43.7689 42.2038 43.7396C41.8957 43.7103 41.5886 43.8047 41.35 44.0018Z" fill="#EBEBEB"/>
<path d="M50.1915 32.3673C49.8968 32.2737 49.5769 32.3008 49.3022 32.4427C49.0274 32.5847 48.8202 32.8298 48.7259 33.1244C48.5026 33.8244 48.2417 34.5235 47.9506 35.203C47.8869 35.3443 47.8521 35.4969 47.848 35.6518C47.844 35.8067 47.8709 35.9608 47.9271 36.1052C47.9833 36.2496 48.0677 36.3814 48.1754 36.4928C48.2831 36.6042 48.412 36.693 48.5544 36.7541C48.6968 36.8152 48.8499 36.8473 49.0049 36.8485C49.1598 36.8497 49.3135 36.8201 49.4568 36.7613C49.6002 36.7025 49.7304 36.6157 49.8399 36.506C49.9493 36.3963 50.0358 36.2659 50.0943 36.1224C50.4157 35.3744 50.7028 34.6038 50.9482 33.833C50.9948 33.6871 51.0123 33.5334 50.9995 33.3808C50.9867 33.2281 50.9439 33.0795 50.8736 32.9433C50.8034 32.8072 50.707 32.6863 50.5899 32.5874C50.4729 32.4886 50.3375 32.4138 50.1915 32.3673Z" fill="#EBEBEB"/>
<path d="M35.6805 47.4575C35.0077 47.7457 34.3082 48.0061 33.6013 48.2317C33.4553 48.2782 33.32 48.353 33.2029 48.4518C33.0859 48.5507 32.9895 48.6716 32.9192 48.8077C32.8489 48.9438 32.806 49.0924 32.7932 49.2451C32.7803 49.3977 32.7976 49.5514 32.8442 49.6974C32.8907 49.8433 32.9655 49.9787 33.0644 50.0957C33.1632 50.2128 33.2841 50.3092 33.4202 50.3795C33.5563 50.4498 33.705 50.4926 33.8576 50.5055C34.0103 50.5183 34.164 50.501 34.3099 50.4545C35.0875 50.2066 35.8577 49.9202 36.5988 49.6029C36.8833 49.481 37.1077 49.2512 37.2228 48.9639C37.3378 48.6766 37.334 48.3553 37.2121 48.0708C37.0903 47.7863 36.8604 47.5619 36.5731 47.4469C36.2858 47.3318 35.9645 47.3357 35.6801 47.4575H35.6805Z" fill="#EBEBEB"/>
<path d="M16.6361 23.6164C16.6361 21.7043 15.3789 20.1722 13.433 19.7128C12.364 19.4596 11.2407 19.5763 10.2466 20.0437C9.25239 20.5111 8.44603 21.3018 7.95909 22.2865C7.82274 22.5631 7.80139 22.8823 7.89971 23.1746C7.99802 23.4668 8.208 23.7082 8.48378 23.8461C8.75955 23.984 9.07869 24.0072 9.37147 23.9105C9.66425 23.8138 9.90686 23.6052 10.0463 23.3302C10.2954 22.8132 10.7144 22.3975 11.2332 22.1524C11.7521 21.9073 12.3394 21.8478 12.8968 21.9838C13.2267 22.0615 14.3027 22.4096 14.3027 23.6164C14.3027 24.8332 12.8974 25.7718 11.4094 26.7655C9.73403 27.8838 7.83594 29.1512 7.83594 31.2499C7.83594 31.5593 7.95886 31.8561 8.17766 32.0749C8.39646 32.2937 8.69321 32.4166 9.00264 32.4166H15.4694C15.6236 32.4181 15.7765 32.389 15.9194 32.3311C16.0622 32.2731 16.1922 32.1874 16.3017 32.0789C16.4113 31.9705 16.4982 31.8413 16.5575 31.6991C16.6169 31.5568 16.6474 31.4041 16.6474 31.25C16.6474 31.0958 16.6169 30.9432 16.5575 30.8009C16.4982 30.6586 16.4113 30.5295 16.3017 30.421C16.1922 30.3125 16.0622 30.2268 15.9194 30.1689C15.7765 30.1109 15.6236 30.0818 15.4694 30.0833H10.8472C11.336 29.6202 12.027 29.1588 12.7049 28.7059C14.548 27.4754 16.6361 26.0809 16.6361 23.6164Z" fill="#EBEBEB"/>
<path d="M27.6703 27.4584C27.6703 27.149 27.5473 26.8523 27.3285 26.6335C27.1097 26.4147 26.813 26.2918 26.5036 26.2918H25.5556V20.0939C25.5556 19.8522 25.4806 19.6166 25.3408 19.4194C25.2011 19.2223 25.0037 19.0734 24.7757 18.9933C24.5478 18.9131 24.3006 18.9058 24.0682 18.9722C23.8359 19.0385 23.6299 19.1754 23.4787 19.3639L17.5725 26.7288C17.4351 26.9003 17.3489 27.1072 17.324 27.3256C17.299 27.544 17.3362 27.765 17.4313 27.9632C17.5265 28.1613 17.6756 28.3286 17.8617 28.4457C18.0477 28.5628 18.263 28.625 18.4828 28.6251H23.2224V31.9064C23.2209 32.0605 23.2499 32.2134 23.3079 32.3563C23.3659 32.4991 23.4516 32.6291 23.56 32.7386C23.6685 32.8482 23.7976 32.9351 23.9399 32.9945C24.0822 33.0538 24.2348 33.0844 24.389 33.0844C24.5432 33.0844 24.6958 33.0538 24.8381 32.9945C24.9804 32.9351 25.1095 32.8482 25.218 32.7386C25.3264 32.6291 25.4121 32.4991 25.4701 32.3563C25.5281 32.2134 25.5571 32.0605 25.5556 31.9064V28.6251H26.5036C26.813 28.6251 27.1098 28.5022 27.3286 28.2834C27.5474 28.0646 27.6703 27.7678 27.6703 27.4584ZM23.2224 26.2918H20.9145L23.2224 23.4133V26.2918Z" fill="#EBEBEB"/>
<path d="M33.6378 18.2936C33.4875 18.2632 33.3327 18.2628 33.1823 18.2924C33.0319 18.322 32.8888 18.381 32.7613 18.466C32.6337 18.5511 32.5242 18.6604 32.439 18.7879C32.3538 18.9153 32.2947 19.0583 32.2649 19.2087L29.6399 32.3337C29.5792 32.6371 29.6414 32.9522 29.813 33.2096C29.9846 33.4671 30.2514 33.6459 30.5548 33.7066C30.6304 33.7217 30.7074 33.7293 30.7845 33.7293C31.054 33.7291 31.315 33.6355 31.5233 33.4646C31.7316 33.2937 31.8743 33.0559 31.9272 32.7917L34.5522 19.6667C34.5824 19.5165 34.5827 19.3618 34.553 19.2115C34.5234 19.0612 34.4644 18.9182 34.3795 18.7906C34.2946 18.6631 34.1854 18.5536 34.0581 18.4683C33.9308 18.383 33.788 18.3236 33.6378 18.2936Z" fill="#EBEBEB"/>
<path d="M39.6275 32.4175C39.8579 32.4173 40.0831 32.349 40.2748 32.2212C40.4665 32.0934 40.6161 31.9117 40.7048 31.6991L45.0798 21.1991C45.1538 21.0218 45.1828 20.829 45.1643 20.6378C45.1459 20.4466 45.0805 20.2629 44.9739 20.103C44.8674 19.9432 44.7231 19.8121 44.5537 19.7215C44.3843 19.6308 44.1952 19.5834 44.0031 19.5835H38.0968C37.7894 19.5865 37.4955 19.7107 37.2791 19.9292C37.0628 20.1476 36.9414 20.4427 36.9414 20.7501C36.9414 21.0576 37.0628 21.3527 37.2791 21.5711C37.4955 21.7896 37.7894 21.9138 38.0968 21.9168H42.2531L38.5514 30.8018C38.4778 30.979 38.449 31.1717 38.4675 31.3628C38.4861 31.5539 38.5515 31.7374 38.6579 31.8972C38.7643 32.057 38.9084 32.1881 39.0775 32.2789C39.2467 32.3697 39.4356 32.4175 39.6275 32.4179V32.4175Z" fill="#EBEBEB"/>
</svg>
