<svg width="55" height="56" viewBox="0 0 55 56" fill="none" xmlns="http://www.w3.org/2000/svg">
<path d="M53.564 20.3491L46.306 13.0911C44.7973 11.5824 42.7914 10.7515 40.6577 10.7515H14.3413C12.2076 10.7515 10.2017 11.5824 8.69296 13.0911L1.43494 20.349C-0.169371 21.9534 -0.297777 24.4891 1.13646 26.2472L24.0868 54.3798C24.9269 55.4096 26.1707 56.0001 27.4995 56.0001C28.8283 56.0001 30.0722 55.4096 30.9122 54.3799L53.8625 26.2473C55.2968 24.4891 55.1685 21.9535 53.564 20.3491ZM42.3833 12.6302L39.0793 21.9916L29.48 12.3922H40.6578C41.2496 12.3922 41.8286 12.4744 42.3833 12.6302ZM37.1665 22.3989H17.8325L27.4995 12.7319L37.1665 22.3989ZM25.5192 12.3922L15.9198 21.9916L12.6158 12.6302C13.1704 12.4744 13.7495 12.3922 14.3413 12.3922H25.5192ZM9.8531 14.2512C10.2335 13.8708 10.6538 13.5452 11.1043 13.2772L14.3238 22.3989H1.99844C2.13407 22.0754 2.33214 21.7722 2.59508 21.5093L9.8531 14.2512ZM27.3423 54.355L17.5939 26.7348C17.4432 26.3075 16.9745 26.0835 16.5474 26.2343C16.1202 26.3851 15.8961 26.8537 16.0469 27.2808L25.1591 53.0987L2.40783 25.2102C2.12061 24.8581 1.93435 24.4562 1.8451 24.0395H38.3564L27.6568 54.355C27.6047 54.358 27.5523 54.3595 27.4995 54.3595C27.4469 54.3595 27.3944 54.358 27.3423 54.355ZM29.8401 53.0987L43.8947 13.2772C44.3453 13.5452 44.7657 13.8708 45.146 14.2512L52.404 21.5093C52.6669 21.7721 52.865 22.0754 53.0006 22.3989H43.6268C43.1737 22.3989 42.8065 22.7662 42.8065 23.2192C42.8065 23.6723 43.1737 24.0395 43.6268 24.0395H53.1541C53.0648 24.4562 52.8786 24.8581 52.5914 25.2102L29.8401 53.0987Z" fill="#EBEBEB"/>
<path d="M27.5 7.9123C27.953 7.9123 28.3203 7.54513 28.3203 7.09198V0.820312C28.3203 0.367281 27.953 0 27.5 0C27.047 0 26.6797 0.367281 26.6797 0.820312V7.09198C26.6797 7.54502 27.047 7.9123 27.5 7.9123Z" fill="#EBEBEB"/>
<path d="M18.7029 7.45874C18.8466 7.74618 19.1363 7.91232 19.4373 7.91232C19.5605 7.91232 19.6857 7.88443 19.8035 7.82558C20.2087 7.62291 20.373 7.13029 20.1703 6.72505L18.3784 3.14116C18.1757 2.73593 17.6832 2.57164 17.2779 2.77432C16.8726 2.97699 16.7084 3.46961 16.911 3.87485L18.7029 7.45874Z" fill="#EBEBEB"/>
<path d="M35.1958 7.82549C35.3136 7.88444 35.4387 7.91222 35.562 7.91222C35.8629 7.91222 36.1526 7.74597 36.2963 7.45864L38.0882 3.87475C38.2909 3.46952 38.1266 2.97678 37.7214 2.77422C37.3164 2.57177 36.8235 2.73583 36.6209 3.14106L34.829 6.72496C34.6264 7.13019 34.7906 7.62292 35.1958 7.82549Z" fill="#EBEBEB"/>
</svg>
