<svg width="57" height="56" viewBox="0 0 57 56" fill="none" xmlns="http://www.w3.org/2000/svg">
<g clip-path="url(#clip0_3632_8245)">
<path d="M30.3588 36.864H45.2874C45.8473 36.864 46.2204 36.4908 46.2204 35.931V27.5336C46.2204 26.9738 45.8473 26.6006 45.2874 26.6006H30.3588C29.799 26.6006 29.4258 26.9738 29.4258 27.5336V35.931C29.4257 36.4907 29.799 36.864 30.3588 36.864ZM31.2918 28.4666H44.3544V34.9978H31.2918V28.4666Z" fill="#EBEBEB"/>
<path d="M5.16738 24.7342H12.6317C13.1916 24.7342 13.5648 24.361 13.5648 23.8012C13.5648 23.2413 13.1916 22.8682 12.6317 22.8682H5.16738C4.60756 22.8682 4.23438 23.2413 4.23438 23.8012C4.23438 24.361 4.60756 24.7342 5.16738 24.7342Z" fill="#EBEBEB"/>
<path d="M16.3627 24.7342H23.8271C24.3869 24.7342 24.7601 24.361 24.7601 23.8012C24.7601 23.2413 24.3869 22.8682 23.8271 22.8682H16.3627C15.8029 22.8682 15.4297 23.2413 15.4297 23.8012C15.4297 24.361 15.8029 24.7342 16.3627 24.7342Z" fill="#EBEBEB"/>
<path d="M5.16738 28.4666H17.2969C17.8567 28.4666 18.2299 28.0934 18.2299 27.5336C18.2299 26.9738 17.8567 26.6006 17.2969 26.6006H5.16738C4.60756 26.6006 4.23438 26.9738 4.23438 27.5336C4.23438 28.0934 4.60756 28.4666 5.16738 28.4666Z" fill="#EBEBEB"/>
<path d="M23.8259 26.6006H21.0268C20.4669 26.6006 20.0938 26.9738 20.0938 27.5336C20.0938 28.0934 20.4669 28.4666 21.0268 28.4666H23.8259C24.3857 28.4666 24.7589 28.0934 24.7589 27.5336C24.7589 26.9738 24.3857 26.6006 23.8259 26.6006Z" fill="#EBEBEB"/>
<path d="M55.6428 15.0308C54.9897 14.1911 54.1499 13.7245 53.1235 13.6313L50.8842 13.3599V10.7388V8.87276C50.8842 6.8201 49.2048 5.14063 47.1521 5.14063H4.23213C2.17947 5.14052 0.5 6.81999 0.5 8.87276V10.7389V18.2032V38.7301C0.5 40.4154 1.63244 41.8483 3.17371 42.3075C3.12669 44.195 4.55479 45.8336 6.47154 46.0079L49.5781 50.8596C49.6713 50.8596 49.858 50.8596 49.9512 50.8596C51.8174 50.8596 53.4968 49.4601 53.6834 47.6873L56.4825 17.7367C56.5758 16.8036 56.2959 15.7772 55.6428 15.0308ZM2.36612 11.6719H49.0182V14.0978V17.2701H2.36612V11.6719ZM4.23213 7.00664H47.152C48.1784 7.00664 49.0181 7.84637 49.0181 8.87276V9.80576H2.36612V8.87276C2.36612 7.84637 3.20586 7.00664 4.23213 7.00664ZM2.36612 38.73V19.1361H49.0182V38.73C49.0182 39.7564 48.1785 40.5961 47.1521 40.5961H4.32551H4.23224C3.20586 40.5961 2.36612 39.7564 2.36612 38.73ZM54.6164 17.3634L51.8173 47.314C51.724 48.3404 50.7909 49.0868 49.7646 48.9935L6.75134 44.1417C5.81834 44.0485 5.16514 43.302 5.07187 42.4623H47.152C49.2047 42.4623 50.8841 40.7828 50.8841 38.7301V18.2031V15.1241L53.0302 15.3107C53.4967 15.3107 53.9632 15.5907 54.2431 15.9638C54.5231 16.337 54.7098 16.8968 54.6164 17.3634Z" fill="#EBEBEB"/>
</g>
<defs>
<clipPath id="clip0_3632_8245">
<rect width="56" height="56" fill="white" transform="translate(0.5)"/>
</clipPath>
</defs>
</svg>
