<svg width="56" height="57" viewBox="0 0 56 57" fill="none" xmlns="http://www.w3.org/2000/svg">
<path d="M50.7447 19.8461C50.7608 19.7002 50.7399 19.5527 50.684 19.417C50.628 19.2814 50.5389 19.162 50.4248 19.0698C50.3106 18.9776 50.1751 18.9156 50.0307 18.8895C49.8863 18.8634 49.7377 18.874 49.5985 18.9203L43.5103 20.9495C45.3868 17.3347 46.3692 13.3227 46.375 9.24983V7.49984C46.375 7.34496 46.3338 7.19287 46.2558 7.0591C46.1778 6.92533 46.0656 6.81466 45.9308 6.73841C45.796 6.66216 45.6434 6.62305 45.4885 6.62508C45.3337 6.62711 45.1821 6.6702 45.0494 6.74996L40.3375 9.57971C40.8597 7.17135 41.1237 4.71417 41.125 2.24984C41.1251 2.1111 41.0923 1.97432 41.0291 1.85079C40.966 1.72725 40.8744 1.6205 40.7619 1.53934C40.6497 1.45802 40.5196 1.40478 40.3826 1.38408C40.2456 1.36337 40.1056 1.3758 39.9744 1.42034C38.2701 1.9924 36.6978 2.90055 35.3507 4.09104C34.0036 5.28153 32.909 6.73017 32.1317 8.35121C31.458 7.29788 30.6743 6.31909 29.7937 5.43134L28.6186 4.25621C28.4545 4.09217 28.232 4.00002 28 4.00002C27.768 4.00002 27.5455 4.09217 27.3814 4.25621C26.3633 5.28096 25.4497 6.40445 24.654 7.61009C23.6006 5.49466 22.3067 3.50782 20.7979 1.68896C20.6511 1.51283 20.4411 1.40131 20.213 1.37841C19.9849 1.3555 19.757 1.42302 19.5781 1.56646C18.1075 2.73728 16.9206 4.22541 16.1062 5.91957C15.2918 7.61373 14.8709 9.47009 14.875 11.3498V12.1872C14.875 12.2616 14.8872 12.3342 14.889 12.4086C13.0826 11.4808 11.0808 10.9978 9.05013 10.9998H7C6.85701 10.9998 6.71619 11.0348 6.58985 11.1017C6.46352 11.1687 6.35552 11.2656 6.27531 11.384C6.1951 11.5024 6.14512 11.6386 6.12975 11.7808C6.11438 11.9229 6.13408 12.0667 6.18713 12.1995L6.6045 13.2416C8.00578 16.7535 10.4404 19.7571 13.5861 21.8551C13.7694 22.5764 14.0117 23.2814 14.3106 23.963C11.7076 22.9189 8.92961 22.3799 6.125 22.3748C5.89294 22.3748 5.67038 22.467 5.50628 22.6311C5.34219 22.7952 5.25 23.0178 5.25 23.2498C5.2524 25.5807 5.87524 27.8688 7.05455 29.8793C8.23385 31.8898 9.92711 33.55 11.9604 34.6896C11.7622 34.7511 11.594 34.8842 11.4886 35.0629C11.3831 35.2417 11.3479 35.4532 11.3899 35.6565L14.2625 51.4633C14.4742 52.6316 15.0896 53.6883 16.0012 54.449C16.9128 55.2096 18.0627 55.6258 19.25 55.6248H38.5C39.6872 55.6255 40.8369 55.2091 41.7484 54.4486C42.66 53.688 43.2755 52.6314 43.4875 51.4633L46.3619 35.6565C46.3848 35.5303 46.3798 35.4006 46.347 35.2766C46.3143 35.1526 46.2547 35.0373 46.1725 34.9388C46.0903 34.8404 45.9874 34.7613 45.8712 34.707C45.755 34.6527 45.6283 34.6247 45.5 34.6248H41.5625C42.1367 33.2685 42.1496 31.7399 41.5984 30.3741C44.0082 29.7489 46.172 28.4084 47.8048 26.529C49.4375 24.6496 50.4625 22.3196 50.7447 19.8461ZM40.25 32.4522C40.2499 33.01 40.1307 33.5613 39.9002 34.0692C39.6698 34.5772 39.3335 35.03 38.9139 35.3975L34.3971 39.3498C34.1045 39.5984 33.7468 39.7581 33.3664 39.8101C35.623 36.1953 37.0242 32.1129 37.4631 27.8742C38.0613 28.1266 38.5642 28.5619 38.8999 29.1176L39.6917 30.4388C40.057 31.0469 40.2499 31.7429 40.25 32.4522ZM24.0949 34.6248C25.1235 33.923 26.0096 33.0322 26.7059 31.9998H28.518C28.2053 32.8408 28.0346 33.7279 28.0131 34.6248H24.0949ZM16.9251 17.9998C18.3795 17.9997 19.8197 18.2861 21.1634 18.8426C22.5071 19.3991 23.7281 20.2149 24.7565 21.2433C25.7849 22.2718 26.6007 23.4927 27.1572 24.8364C27.7137 26.1801 28.0001 27.6203 28 29.0747V29.8395C22.5437 27.5462 18.0914 23.3712 15.4525 18.0733L15.4157 17.9998H16.9251ZM28.875 19.0901V24.4276C27.7523 21.5314 25.6153 19.1419 22.862 17.7041C23.2606 13.647 24.8886 9.80839 27.5284 6.70184C28.4225 10.7706 28.874 14.9242 28.875 19.0901ZM34.8049 16.5806L35.1934 16.0967C36.609 14.325 38.3301 12.8209 40.2754 11.6552L43.7911 9.54558C41.19 16.4275 36.6465 22.406 30.7125 26.7551C31.0563 23.0373 32.4787 19.501 34.8049 16.5806ZM29.75 29.3748C29.9228 29.3749 30.0918 29.3237 30.2356 29.2278C30.2846 29.1946 30.3319 29.1596 30.3809 29.1272C30.1566 29.3513 29.9459 29.5885 29.75 29.8377V29.3748ZM24.451 30.0285C22.2288 29.6014 20.1767 28.5429 18.5405 26.9797C16.9042 25.4166 15.7531 23.415 15.225 21.2146C17.5335 24.8627 20.7013 27.889 24.451 30.0285ZM32.4082 29.6785L34.4776 28.1997C34.8495 27.9358 35.2754 27.7579 35.7245 27.6791C35.3114 31.7247 33.9634 35.6189 31.787 39.0541L31.6015 39.3455C31.491 39.2521 31.3912 39.1467 31.304 39.0313L31.0231 38.656C30.5155 37.979 30.1484 37.2075 29.9432 36.3867C29.738 35.5659 29.699 34.7123 29.8283 33.8762C29.9577 33.0401 30.2529 32.2383 30.6965 31.5178C31.1402 30.7974 31.7233 30.1729 32.4117 29.6811L32.4082 29.6785ZM36.2644 25.8748C35.366 25.8778 34.4866 26.1338 33.7269 26.6133C38.2587 22.8342 41.8896 18.091 44.3546 12.7297C43.9595 15.3999 43.1111 17.9831 41.846 20.3676C40.6068 22.6909 38.723 24.607 36.421 25.8853C36.3685 25.8836 36.3169 25.8748 36.2644 25.8748ZM33.5519 9.41258C34.708 6.81765 36.7687 4.732 39.3496 3.54484C39.2488 6.0427 38.8637 8.52095 38.2016 10.9316C36.8658 11.8602 35.6443 12.9434 34.5625 14.1586C34.2632 12.7941 33.8045 11.4696 33.1957 10.2123L33.5519 9.41258ZM33.1056 15.941C32.1149 17.2485 31.2822 18.6685 30.625 20.1716V19.0901C30.6228 15.2783 30.2545 11.4756 29.5251 7.73433C31.4718 10.0757 32.7137 12.9215 33.1065 15.941H33.1056ZM21.1846 16.991C20.8722 16.8807 20.5564 16.7818 20.2352 16.697C19.8536 12.5838 19.9885 8.43907 20.6369 4.35946C21.7865 5.94161 22.773 7.63609 23.5812 9.41696C22.3252 11.7722 21.5131 14.3384 21.1855 16.9875L21.1846 16.991ZM16.625 11.3498C16.6231 9.01251 17.3855 6.73866 18.7959 4.87484C18.2511 8.67297 18.1355 12.5203 18.4511 16.3443C18.0749 16.3006 17.6951 16.2761 17.3136 16.2647L16.9479 14.8008C16.7344 13.9469 16.626 13.0701 16.625 12.1898V11.3498ZM8.29412 12.7498H9.05013C11.2111 12.7494 13.3246 13.3842 15.1279 14.5751C15.1699 14.793 15.1952 15.0126 15.2495 15.2287L15.505 16.2498H14C13.7679 16.2498 13.5454 16.342 13.3813 16.5061C13.2172 16.6702 13.125 16.8928 13.125 17.1248V18.4198C13.125 18.7375 13.153 19.0516 13.1757 19.3666C11.0292 17.5959 9.35253 15.3233 8.29412 12.7498ZM17.6829 28.569C18.1864 29.011 18.7219 29.4152 19.285 29.7782C15.2531 28.9083 11.5151 27.0091 8.435 24.2657C10.9413 24.5533 13.3723 25.3046 15.6039 26.4812L15.9119 26.6448C16.4387 27.3419 17.0318 27.9863 17.6829 28.569ZM7.24325 25.5432C11.9442 29.7487 18.0305 32.0737 24.3381 32.0733C24.3652 32.0733 24.3924 32.0733 24.4186 32.0733C23.6594 32.875 22.7455 33.5145 21.7321 33.953C20.7188 34.3916 19.627 34.6201 18.5229 34.6248H18.375C15.7585 34.6208 13.2232 33.7156 11.1958 32.0616C9.16834 30.4076 7.77255 28.1056 7.24325 25.5432ZM41.7646 51.1501C41.6257 51.9147 41.2228 52.6062 40.6262 53.1042C40.0296 53.6021 39.2771 53.8748 38.5 53.8748H19.25C18.4731 53.875 17.7208 53.6024 17.1243 53.1046C16.5278 52.6068 16.125 51.9154 15.9862 51.151L13.3 36.3748H28.154C28.3857 37.5796 28.8871 38.7163 29.6205 39.6998L29.9014 40.0743C30.221 40.5009 30.6254 40.8569 31.089 41.1199C31.5527 41.383 32.0657 41.5474 32.5959 41.6029C33.126 41.6585 33.662 41.6039 34.1701 41.4426C34.6782 41.2814 35.1475 41.0169 35.5486 40.6658L40.0654 36.7143C40.1887 36.6067 40.3025 36.4903 40.4154 36.374H44.45L41.7646 51.1501ZM41.1005 28.6985L40.7426 28.786L40.4005 28.2146C39.9778 27.5148 39.3844 26.9337 38.6759 26.5258C39.9571 25.6223 41.0923 24.5278 42.042 23.2805L48.7541 21.044C48.2862 22.8909 47.328 24.5772 45.9808 25.9246C44.6336 27.2719 42.9474 28.2303 41.1005 28.6985Z" fill="#AE8646"/>
</svg>
