<svg width="56" height="56" viewBox="0 0 56 56" fill="none" xmlns="http://www.w3.org/2000/svg">
<g clip-path="url(#clip0_3632_1027)">
<path d="M54.6144 28.969C54.587 28.7217 53.8739 22.8658 49.9506 20.6969C49.6017 20.5066 49.2364 20.348 48.8592 20.2223C49.173 19.7388 49.429 19.2204 49.6236 18.6779C51.0467 14.5424 48.6195 9.91694 44.1866 8.09257C44.0028 8.01272 43.8192 7.93835 43.6353 7.87272H43.6255C41.3953 7.08085 38.952 7.13553 36.76 8.02694C36.1595 8.2785 35.5908 8.59788 35.0635 8.9785C33.2665 2.60632 26.2403 2.75288 26.1517 2.75507C23.6777 2.80757 21.2889 3.71538 19.6439 5.17663C19.4952 4.88897 19.3256 4.61335 19.1364 4.35085C16.4403 0.769908 10.5406 0.888034 10.2913 0.892409C9.8986 0.902252 9.55625 1.16038 9.43922 1.53444C9.37141 1.7521 7.94734 6.46616 9.74547 10.0077C7.73734 10.8608 6.08141 12.3768 5.05219 14.3018C4.07109 16.1415 3.86547 18.2973 4.48344 20.289C4.8225 21.3335 5.38688 22.2916 6.13609 23.0944C5.82656 23.2388 5.53792 23.4228 5.24578 23.5987C2.56828 25.2108 1.77641 28.9077 1.50953 30.7988H1.51609C1.44391 31.2866 1.39797 31.7766 1.375 32.2677H1.38594C1.37391 32.6593 1.61234 33.0148 1.97984 33.1504C3.52094 33.6732 5.13531 33.9488 6.76281 33.9674C8.42313 34.0232 10.0605 33.578 11.4638 32.6899C11.758 32.4865 12.0347 32.2591 12.2906 32.0086C12.9567 33.356 13.9859 34.4902 15.2634 35.2832C15.5292 35.4429 15.8038 35.5883 16.0848 35.7207C16.6525 36.4633 17.1808 37.2356 17.6664 38.034C15.3094 36.8637 12.8845 37.0507 11.8827 38.6027C11.3041 39.6581 11.3402 40.9443 11.9745 41.9671C10.6697 42.4243 9.75422 43.6054 9.63719 44.9837C9.63719 47.0432 12.0577 48.6553 15.1453 48.6553C16.6569 48.7012 18.1422 48.2463 19.3683 47.3614C19.0927 49.0884 18.0678 50.6054 16.5683 51.5067C16.3047 51.6379 16.1209 51.8884 16.0739 52.1793C16.0269 52.4703 16.122 52.7667 16.3298 52.9745C17.6303 54.0617 19.1681 54.8262 20.8186 55.2068L20.8766 55.2232C22.9 55.7625 24.9869 56.0238 27.0803 55.9998C29.1727 56.025 31.2584 55.7636 33.2808 55.2254L33.3378 55.209C34.9893 54.8274 36.5271 54.0629 37.8276 52.9768C38.0353 52.7679 38.1306 52.4726 38.0836 52.1815C38.0365 51.8905 37.8517 51.6401 37.5892 51.5078C35.4924 50.46 34.7705 47.8929 34.5332 45.9079L34.647 45.8805C35.1392 45.7568 35.4377 45.2582 35.3153 44.767C35.2091 44.3623 34.8417 44.0834 34.4239 44.0889V44.0659C34.4239 41.9878 35.4531 39.4393 37.3836 36.6799C37.4755 36.6799 37.5728 36.6918 37.668 36.6918C41.239 36.8166 44.4941 34.6565 45.7673 31.3171C45.8198 31.1662 45.858 31.0109 45.8985 30.8589C46.6991 31.0974 47.5304 31.2166 48.366 31.2132C50.3435 31.1596 52.2916 30.7145 54.0973 29.903C54.4514 29.7346 54.6592 29.3583 54.6144 28.969ZM38.6653 11.0162C39.1607 9.90929 40.3036 9.23882 41.5113 9.3471C42.0275 9.34929 42.5394 9.43678 43.0272 9.60522H43.0327L43.0611 9.61616C44.9566 10.2823 46.1017 11.9798 45.6095 13.4082C45.5002 13.7079 45.3252 13.9791 45.0977 14.2033C45.043 13.6915 44.8483 13.2058 44.5333 12.799C43.9908 12.1208 43.2624 11.6144 42.4366 11.3443C41.1416 10.7963 39.6475 11.0304 38.5811 11.9469C38.5395 11.6341 38.568 11.3169 38.6653 11.0162ZM43.2744 14.549C43.1595 14.7524 42.9561 14.8902 42.7242 14.923C42.3764 15.0029 42.0156 15.0051 41.6666 14.9296C41.5277 14.8946 41.39 14.8662 41.2509 14.8202H41.2411L41.2302 14.8148C41.0858 14.7644 40.9544 14.6999 40.8188 14.6376C40.0521 14.2449 39.6977 13.6554 39.8027 13.3524C39.8847 13.1162 40.2927 12.9116 40.8724 12.9116C41.2016 12.916 41.5276 12.9729 41.8382 13.0833C42.3205 13.2376 42.7493 13.5252 43.073 13.9146C43.235 14.083 43.3094 14.3182 43.2744 14.549ZM33.9972 13.2944C34.5484 11.749 35.7111 10.4999 37.2118 9.83819C37.1014 10.023 37.0073 10.2166 36.9296 10.4179C36.1039 12.811 37.7706 15.5585 40.6417 16.5516C40.8998 16.6413 41.1645 16.7091 41.4347 16.754C41.8624 16.8502 42.2998 16.9016 42.7384 16.9082C44.7368 17.0252 46.5873 15.8593 47.3442 14.0076C47.4109 13.8107 47.4603 13.6094 47.493 13.4049C48.2563 14.8443 48.3985 16.533 47.8867 18.0796C47.0533 20.2868 45.054 21.8421 42.7089 22.1068C41.9772 21.5391 41.17 21.0765 40.3114 20.7298C40.1386 20.6543 39.9614 20.5832 39.7788 20.5208C38.5384 20.091 37.2259 19.9105 35.9145 19.9893C34.0092 18.3323 33.2578 15.7083 33.9972 13.2944ZM36.0349 23.8415C35.5371 23.9673 35.0833 24.2298 34.7266 24.5983C34.684 24.2823 34.7136 23.9618 34.8119 23.6588C35.081 22.9599 35.6574 22.424 36.3728 22.2074C36.7895 22.0619 37.228 21.9887 37.6689 21.9908C38.1852 21.993 38.697 22.0816 39.1838 22.2512C39.8564 22.4776 40.4667 22.8571 40.9667 23.3613C41.0301 23.4926 41.1241 23.6063 41.2412 23.6927C41.8045 24.3391 42.0014 25.2283 41.7629 26.0519C41.6525 26.3516 41.4753 26.6229 41.2457 26.8449C41.191 26.3341 40.9952 25.8474 40.6813 25.4416C39.5556 24.0777 37.7619 23.4598 36.0349 23.8415ZM39.4222 27.1949C39.3183 27.499 38.6752 27.7451 37.8275 27.5799C37.6831 27.5405 37.5388 27.511 37.3955 27.4607V27.4651H37.3878L37.3769 27.4596C37.2325 27.4104 37.1013 27.3448 36.9667 27.2835C36.2 26.8908 35.8456 26.3013 35.9495 25.9983C36.0655 25.7949 36.2689 25.656 36.5008 25.6232C36.6703 25.5794 36.8452 25.5587 37.0214 25.5598C37.3495 25.563 37.6755 25.6199 37.985 25.7293C38.4674 25.8824 38.8961 26.1712 39.2198 26.5594C39.3828 26.729 39.4572 26.963 39.4222 27.1949ZM17.6183 24.9888C17.2388 25.3377 16.9642 25.784 16.8253 26.2794C16.6394 26.0213 16.5136 25.7238 16.4578 25.4088C16.3605 24.6673 16.6109 23.9213 17.137 23.3887V23.3919C17.7977 22.6908 18.677 22.2337 19.6308 22.0948C19.8922 22.0521 20.1558 22.0302 20.4194 22.0302C21.1139 22.0215 21.7997 22.191 22.41 22.5224C23.0783 22.8582 23.5552 23.4827 23.7017 24.2155C23.7498 24.5316 23.7258 24.8543 23.6306 25.1594C23.3408 24.734 22.9372 24.3982 22.4658 24.1904C20.8284 23.5243 18.9559 23.8327 17.6183 24.9888ZM20.9761 27.4169C20.8273 27.4552 20.6808 27.5001 20.5266 27.5263V27.5296C20.3745 27.5548 20.2258 27.558 20.0759 27.569C19.7238 27.5843 19.3716 27.5219 19.0456 27.3852C18.77 27.2627 18.5928 27.0888 18.5666 26.9269C18.5709 26.6929 18.6825 26.4741 18.8706 26.3341C19.2556 26.006 19.7259 25.7938 20.228 25.7227C20.3975 25.6943 20.5692 25.6801 20.7409 25.6801C21.0734 25.6735 21.4027 25.7358 21.7089 25.8638C21.9845 25.9874 22.1606 26.1602 22.1891 26.3232C22.2405 26.6382 21.7953 27.1577 20.9761 27.4169ZM21.6553 20.1774C21.8959 19.6207 22.0753 19.0388 22.1891 18.4427C23.4436 18.9808 24.7966 19.2565 26.1616 19.251C28.3261 19.2696 30.4348 18.5641 32.1531 17.2462C32.4736 18.3826 33.0238 19.4424 33.7686 20.3579C33.4755 20.4465 33.1868 20.5493 32.9034 20.6663C31.1361 21.3762 29.6836 22.6996 28.815 24.3949V24.3982C28.1478 23.253 27.2116 22.2873 26.0861 21.5862C24.7506 20.7527 23.227 20.2693 21.6553 20.1774ZM26.1616 4.56303C28.1873 4.56303 29.8344 5.79788 29.8344 7.3171C29.8278 7.63319 29.7523 7.94272 29.6123 8.226C28.9025 7.01085 27.5659 6.30319 26.1616 6.39944C24.7583 6.30319 23.4206 7.01085 22.7108 8.226C22.5708 7.94272 22.4953 7.63319 22.4898 7.3171C22.4898 5.79788 24.137 4.56303 26.1616 4.56303ZM27.998 9.1535C27.998 9.47288 27.4719 9.91475 26.6209 10.0373C26.4689 10.0515 26.3202 10.0712 26.1616 10.0712C26.0041 10.0712 25.8564 10.0515 25.7033 10.0373C24.8523 9.91475 24.3263 9.47288 24.3263 9.1535C24.3263 8.77944 25.0405 8.23585 26.1616 8.23585C27.2827 8.23585 27.998 8.77944 27.998 9.1535ZM20.7092 6.70132C20.6742 6.90475 20.6556 7.11147 20.6534 7.3171C20.6534 9.84803 23.1242 11.9076 26.1616 11.9076C29.2 11.9076 31.6697 9.84803 31.6697 7.3171C31.6685 7.10053 31.6478 6.88288 31.6083 6.6696C32.6704 7.67366 33.3321 9.02882 33.4688 10.4835C32.4418 11.7785 31.8742 13.3765 31.8533 15.0291C30.3647 16.5724 28.3063 17.4354 26.1615 17.4157C24.8161 17.4201 23.4916 17.0843 22.3104 16.4412C22.2677 15.8571 22.1561 15.2807 21.9779 14.7229C21.4354 13.0385 20.3252 11.5948 18.8377 10.6366C18.9472 9.1371 19.6155 7.73272 20.7092 6.70132ZM11.0241 2.74522C12.5072 2.82507 16.0127 3.25382 17.6697 5.45335C17.9464 5.83616 18.1684 6.25616 18.3281 6.70132C17.9213 7.29741 17.5986 7.946 17.3678 8.6296C16.7444 7.46257 15.8573 6.45741 14.7778 5.69178C14.3731 5.38772 13.7978 5.46975 13.4927 5.87553C13.1886 6.28132 13.2706 6.85663 13.6764 7.16069C14.4934 7.736 15.1748 8.48194 15.6747 9.346C14.3053 9.07475 12.8933 9.09991 11.5327 9.41819C10.2486 7.21647 10.72 4.0971 11.0241 2.74522ZM11.1783 11.4252V11.4285C11.2133 11.4165 11.2472 11.4001 11.2844 11.3891C11.3205 11.3782 11.3489 11.3727 11.3817 11.3629C11.8127 11.2316 12.26 11.1627 12.7106 11.1594C13.9542 11.0468 15.1278 11.7479 15.6178 12.8963C15.7097 13.2026 15.7327 13.5252 15.6823 13.8402C15.3334 13.4618 14.8861 13.1883 14.3906 13.0494C13.5506 12.8296 12.6636 12.8602 11.84 13.1348C10.4728 13.4694 9.41297 14.549 9.10453 15.9227C8.88578 15.6952 8.71953 15.4229 8.61891 15.1232C8.16828 13.7013 9.31344 12.0662 11.1783 11.4252ZM13.3855 16.4576C13.2411 16.5177 13.1033 16.5844 12.9534 16.6315V16.6348C12.8025 16.6829 12.6538 16.708 12.5039 16.7398C11.6573 16.883 11.0219 16.6216 10.9256 16.3176C10.8119 15.9599 11.3281 15.226 12.3945 14.8848C12.6898 14.7874 12.9983 14.7371 13.31 14.7338C13.9203 14.7338 14.3491 14.9537 14.4267 15.2008C14.5241 15.5049 14.1577 16.0824 13.3855 16.4576ZM11.6213 29.9271C11.6213 29.9501 11.6322 29.9707 11.6355 29.9938C11.3052 30.452 10.9005 30.8513 10.4367 31.1739C8.15516 32.7293 4.69344 32.0183 3.26609 31.6257C3.29234 31.3632 3.32625 31.0974 3.36781 30.8403C3.37219 30.8042 3.37438 30.7703 3.37438 30.7353H3.38094C3.64891 29.0979 4.50061 26.177 6.28703 25.1101C6.73547 24.8159 7.22766 24.5961 7.745 24.4593C8.53031 24.9592 9.39 25.33 10.2923 25.5607C8.81469 26.4456 7.45297 27.5109 6.23781 28.7303C5.99938 28.9611 5.90313 29.3024 5.98734 29.6228C6.07156 29.9444 6.32203 30.1949 6.64359 30.2791C6.96406 30.3634 7.30531 30.2671 7.53609 30.0286C8.78625 28.7731 10.2081 27.7 11.7591 26.8414C11.4998 27.849 11.4528 28.9001 11.6213 29.9271ZM13.1175 23.9946C11.4495 24.1171 9.78922 23.661 8.41766 22.704C7.38844 21.9777 6.62172 20.9365 6.23453 19.7377C5.76422 18.2087 5.92719 16.556 6.68516 15.1473C6.69938 15.1177 6.71906 15.0926 6.73328 15.0641C6.76172 15.2719 6.80656 15.4776 6.86891 15.6777C7.60609 17.5951 9.50047 18.8124 11.5502 18.6888C11.9559 18.6844 12.3595 18.6407 12.7566 18.5587C13.2695 18.4788 13.7672 18.3202 14.2309 18.0873C15.2525 17.6432 16.1286 16.9224 16.7608 16.0069C17.5209 14.9427 17.7441 13.5865 17.3667 12.3341C17.2934 12.1318 17.2038 11.9349 17.0977 11.7468C18.5819 12.4435 19.715 13.7199 20.2291 15.2774C20.7322 16.9552 20.4861 18.7687 19.552 20.2507C19.4788 20.2605 19.4055 20.2649 19.3322 20.2769C16.9894 20.6379 14.862 21.8465 13.3527 23.673C13.2684 23.778 13.1963 23.8885 13.1175 23.9946ZM16.2467 33.729C14.7581 32.8333 13.73 31.3369 13.4292 29.6263C13.2181 28.2963 13.473 26.9335 14.15 25.7698C14.3338 25.7085 14.4464 25.6779 14.4519 25.6779C14.5164 25.656 14.5788 25.6276 14.6356 25.5915C14.6411 25.6298 14.6411 25.6669 14.6477 25.7052C14.8795 26.9904 15.6933 28.0962 16.8516 28.6999C17.7375 29.1854 18.7339 29.437 19.7445 29.4282C20.1077 29.4271 20.4697 29.3965 20.8284 29.3364C21.0713 29.2948 21.3119 29.2346 21.547 29.1581C22.6375 28.8715 23.6241 28.2809 24.393 27.4551C25.2975 26.5123 25.7131 25.2031 25.5206 23.9114C25.4856 23.7068 25.4331 23.5067 25.3664 23.3109C26.7216 24.2132 27.648 25.6318 27.9291 27.2364C28.5044 30.7331 25.7263 34.1128 21.7264 34.7701C19.8342 35.1071 17.8841 34.7363 16.2467 33.729ZM15.1453 46.8201C13.0431 46.8201 11.4736 45.8499 11.4736 44.9837C11.4736 44.1174 13.0431 43.1473 15.1453 43.1473C17.2475 43.1473 18.8181 44.1174 18.8181 44.9837C18.8181 45.8499 17.2475 46.8201 15.1453 46.8201ZM15.1453 41.3119C14.687 41.3119 14.2298 41.3502 13.7781 41.4257C13.3395 40.9204 13.2061 40.2193 13.4281 39.5893H13.4292C13.9006 38.8619 15.7458 38.9024 17.5122 40.0432C18.3314 40.5485 19.0041 41.2605 19.4602 42.1082C19.5214 42.3466 19.5794 42.585 19.6198 42.8223C18.3642 41.7866 16.7717 41.2485 15.1453 41.3119ZM35.5547 52.3457C34.7847 52.7669 33.972 53.1037 33.1299 53.3509C31.4642 52.6245 30.2369 51.1579 29.8158 49.3904C29.7588 49.0611 29.5281 48.7888 29.2119 48.6782C28.8969 48.5689 28.5458 48.639 28.2977 48.8621C28.0494 49.0852 27.9411 49.4265 28.0166 49.7524C28.3502 51.4007 29.2656 52.8751 30.5956 53.9065C28.2648 54.2465 25.8958 54.2465 23.5639 53.9065C24.8928 52.8773 25.8083 51.4051 26.1441 49.7568C26.2184 49.4319 26.1113 49.0907 25.8619 48.8676C25.6136 48.6444 25.2636 48.5744 24.9475 48.6838C24.6314 48.7943 24.4006 49.0666 24.3438 49.3959C23.9227 51.1621 22.6944 52.6279 21.0297 53.353C20.1886 53.1069 19.3748 52.7701 18.6059 52.349C20.4522 50.774 21.1642 48.2737 21.4278 46.2743C23.2927 46.6166 25.1838 46.7993 27.0803 46.8201C28.9769 46.7982 30.867 46.6132 32.7328 46.2688C32.9953 48.2704 33.7073 50.7718 35.5547 52.3457ZM32.5884 44.0659V44.4324C30.7718 44.7759 28.9288 44.9607 27.0803 44.9837C25.2319 44.9607 23.3878 44.7759 21.5722 44.4324V44.0659C21.5722 41.4782 20.3538 38.8203 18.957 36.6218C19.4175 36.6875 19.8813 36.7214 20.3461 36.7214C20.9061 36.7203 21.465 36.6742 22.0184 36.5836C22.3663 36.5256 22.7119 36.4479 23.052 36.3528C23.8909 37.8709 24.3295 39.577 24.3263 41.3118C24.3263 41.8182 24.7364 42.2295 25.2439 42.2295C25.7514 42.2295 26.1616 41.8182 26.1616 41.3118C26.1659 39.3573 25.6934 37.4323 24.7845 35.7031C26.5969 34.8412 28.0756 33.4085 28.9944 31.6245C29.0217 31.677 29.0435 31.7307 29.0731 31.7842C29.4898 32.5203 30.0061 33.1962 30.6066 33.7923C28.9113 35.9317 27.9926 38.5818 27.998 41.3118C27.998 41.8182 28.4092 42.2295 28.9156 42.2295C29.4232 42.2295 29.8344 41.8182 29.8344 41.3118C29.8377 39.0095 30.6088 36.7739 32.0252 34.9593C32.7611 35.4538 33.5586 35.8507 34.3964 36.1384C34.7103 36.2467 35.0264 36.3342 35.3425 36.414C33.5138 39.2141 32.5884 41.7844 32.5884 44.0659ZM44.0313 30.7201C42.8773 34.0702 38.8261 35.7229 34.9947 34.4027C33.1714 33.7989 31.6337 32.5466 30.6733 30.883C29.7939 29.4382 29.5839 27.6815 30.0991 26.0705C30.6142 24.4583 31.8031 23.1491 33.3573 22.4808C33.248 22.6657 33.1539 22.8604 33.0763 23.0605C32.2505 25.4537 33.9174 28.2023 36.7895 29.1954C37.0509 29.2851 37.3189 29.354 37.5924 29.3999C38.0167 29.494 38.4499 29.5454 38.8852 29.5521C40.8834 29.669 42.7352 28.5019 43.492 26.6491C43.5586 26.4533 43.608 26.251 43.6407 26.0465C44.4042 27.4858 44.5453 29.1746 44.0313 30.7201ZM46.175 29.0237C46.198 27.5929 45.8402 26.1832 45.1391 24.9363C46.0229 25.2568 46.8388 25.738 47.5486 26.3538C47.9085 26.7016 48.4816 26.6973 48.8349 26.3429C49.1893 25.9885 49.1947 25.4165 48.8469 25.0555C47.8888 24.2068 46.7765 23.5516 45.569 23.1283C46.2918 22.7816 46.9602 22.331 47.5519 21.7907C48.078 21.8826 48.5877 22.0554 49.0613 22.3037C51.4741 23.6369 52.3885 27.0483 52.6761 28.5052C51.413 28.9832 48.5014 29.8757 46.175 29.0237Z" fill="#AE8646"/>
</g>
<defs>
<clipPath id="clip0_3632_1027">
<rect width="56" height="56" fill="white"/>
</clipPath>
</defs>
</svg>
