<svg width="67" height="32" viewBox="0 0 67 32" fill="none" xmlns="http://www.w3.org/2000/svg">
<path d="M5.71484 10.0572L8.95294 5.71436H21.9053L25.1434 10.0572M5.71484 10.0572V25.2572C5.71484 25.8331 5.94228 26.3854 6.34712 26.7926C6.75196 27.1999 7.30104 27.4286 7.87357 27.4286H22.9847C23.5572 27.4286 24.1063 27.1999 24.5111 26.7926C24.916 26.3854 25.1434 25.8331 25.1434 25.2572V10.0572M5.71484 10.0572H25.1434M19.7466 14.4001C19.7466 15.5519 19.2917 16.6565 18.482 17.4709C17.6724 18.2854 16.5742 18.7429 15.4291 18.7429C14.2841 18.7429 13.1859 18.2854 12.3762 17.4709C11.5665 16.6565 11.1117 15.5519 11.1117 14.4001" stroke="#EBEBEB" stroke-width="1.5" stroke-linecap="round" stroke-linejoin="round"/>
<path d="M38.874 12.236H34.352V21H33.19V11.2H40.036V21H38.874V12.236ZM44.3645 18.536L44.7565 19.88H44.8265L45.1345 18.522L46.4925 14H47.6265L45.5545 20.286C45.3958 20.7433 45.2372 21.1867 45.0785 21.616C44.9292 22.0453 44.7612 22.428 44.5745 22.764C44.3878 23.1 44.1778 23.366 43.9445 23.562C43.7112 23.7673 43.4405 23.87 43.1325 23.87C42.7965 23.87 42.5212 23.8233 42.3065 23.73L42.5025 22.764C42.6238 22.8107 42.7405 22.834 42.8525 22.834C43.1138 22.834 43.3658 22.694 43.6085 22.414C43.8512 22.1433 44.0518 21.672 44.2105 21L41.3965 14H42.6845L44.3645 18.536ZM53.52 20.538C53.24 20.7433 52.9086 20.8973 52.526 21C52.1433 21.112 51.742 21.168 51.322 21.168C50.7806 21.168 50.3233 21.084 49.95 20.916C49.5766 20.7387 49.2686 20.4913 49.026 20.174C48.7926 19.8473 48.62 19.46 48.508 19.012C48.4053 18.5547 48.354 18.0507 48.354 17.5C48.354 16.3147 48.6153 15.4093 49.138 14.784C49.6606 14.1493 50.412 13.832 51.392 13.832C51.84 13.832 52.218 13.8693 52.526 13.944C52.8433 14.0093 53.128 14.1073 53.38 14.238L53.058 15.204C52.8433 15.0827 52.6053 14.9893 52.344 14.924C52.0826 14.8493 51.8026 14.812 51.504 14.812C50.1786 14.812 49.516 15.708 49.516 17.5C49.516 17.8547 49.5486 18.1953 49.614 18.522C49.6886 18.8393 49.8053 19.124 49.964 19.376C50.132 19.6187 50.3466 19.8147 50.608 19.964C50.8786 20.1133 51.21 20.188 51.602 20.188C51.938 20.188 52.2366 20.1367 52.498 20.034C52.7686 19.9313 52.988 19.8147 53.156 19.684L53.52 20.538ZM59.3096 14.98H57.1116V21H55.9916V14.98H53.7936V14H59.3096V14.98ZM59.811 17.5C59.811 16.3147 60.0723 15.4093 60.595 14.784C61.127 14.1493 61.8877 13.832 62.877 13.832C63.3997 13.832 63.8523 13.9207 64.235 14.098C64.627 14.266 64.949 14.5133 65.201 14.84C65.453 15.1573 65.6397 15.5447 65.761 16.002C65.8823 16.45 65.943 16.9493 65.943 17.5C65.943 18.6853 65.677 19.5953 65.145 20.23C64.6223 20.8553 63.8663 21.168 62.877 21.168C62.3543 21.168 61.897 21.084 61.505 20.916C61.1223 20.7387 60.805 20.4913 60.553 20.174C60.301 19.8473 60.1143 19.46 59.993 19.012C59.8717 18.5547 59.811 18.0507 59.811 17.5ZM60.973 17.5C60.973 17.8547 61.0057 18.1953 61.071 18.522C61.1457 18.8487 61.2577 19.1333 61.407 19.376C61.5563 19.6187 61.7523 19.8147 61.995 19.964C62.2377 20.1133 62.5317 20.188 62.877 20.188C64.1463 20.1973 64.781 19.3013 64.781 17.5C64.781 17.136 64.7437 16.7907 64.669 16.464C64.6037 16.1373 64.4963 15.8527 64.347 15.61C64.1977 15.3673 64.0017 15.176 63.759 15.036C63.5163 14.8867 63.2223 14.812 62.877 14.812C61.6077 14.8027 60.973 15.6987 60.973 17.5Z" fill="#EBEBEB"/>
</svg>
