<svg width="39" height="23" viewBox="0 0 39 23" fill="none" xmlns="http://www.w3.org/2000/svg">
<g clip-path="url(#clip0_706_17499)">
<path fill-rule="evenodd" clip-rule="evenodd" d="M14.2975 18.3031C18.1148 11.3491 21.3508 17.3646 15.7345 19.151C15.2412 20.2111 13.6552 19.289 14.2975 18.3031Z" fill="url(#paint0_linear_706_17499)"/>
<path fill-rule="evenodd" clip-rule="evenodd" d="M21.3507 21.1955C20.915 19.8167 23.5064 18.4856 23.7996 20.2407C23.8146 20.4932 23.7224 20.7366 23.5443 20.9063C23.5028 22.0758 21.6941 22.3509 21.3507 21.1955Z" fill="url(#paint1_linear_706_17499)"/>
<path fill-rule="evenodd" clip-rule="evenodd" d="M13.831 8.87907C13.7393 8.21124 14.1397 7.49666 14.7552 7.25769C15.278 5.21829 19.671 3.64756 19.0316 6.96301C18.4816 8.5147 14.6974 11.5836 13.831 8.87907Z" fill="url(#paint2_linear_706_17499)"/>
<path fill-rule="evenodd" clip-rule="evenodd" d="M20.5191 10.2581C20.4501 9.19661 21.6517 8.45392 22.5811 8.37949C23.7244 8.42513 23.6822 9.99729 22.5971 10.1068C22.4209 11.1728 20.7452 11.4643 20.5191 10.2581Z" fill="url(#paint3_linear_706_17499)"/>
<path fill-rule="evenodd" clip-rule="evenodd" d="M26.8684 5.7166C26.389 4.40287 28.0985 2.17755 29.4305 3.0941C33.1022 3.98635 28.0416 8.88012 26.8684 5.7166Z" fill="url(#paint4_linear_706_17499)"/>
<path fill-rule="evenodd" clip-rule="evenodd" d="M29.3359 13.1008C30.3549 12.6315 31.0892 14.2741 30.0635 14.7278C29.0483 15.1955 28.314 13.5529 29.3359 13.1008Z" fill="url(#paint5_linear_706_17499)"/>
<path fill-rule="evenodd" clip-rule="evenodd" d="M7.10914 24.8503C8.01416 23.0291 10.292 25.2468 8.49225 26.6834C7.07288 27.8673 5.71626 26.0227 7.10914 24.8503Z" fill="url(#paint6_linear_706_17499)"/>
<path fill-rule="evenodd" clip-rule="evenodd" d="M22.0215 27.4381C21.8454 26.4924 22.5911 25.7346 23.3161 25.2816C23.8153 23.8722 26.4605 24.252 26.4562 25.8493C26.4419 27.5481 22.785 29.5629 22.0215 27.4381Z" fill="url(#paint7_linear_706_17499)"/>
</g>
<defs>
<linearGradient id="paint0_linear_706_17499" x1="22.6196" y1="-13.8089" x2="6.58535" y2="57.4431" gradientUnits="userSpaceOnUse">
<stop stop-color="#BD8B5B"/>
<stop offset="0.1872" stop-color="#947039"/>
<stop offset="0.3691" stop-color="#C4975A"/>
<stop offset="0.5389" stop-color="#EBB675"/>
<stop offset="0.6275" stop-color="#FAC27F"/>
<stop offset="0.7099" stop-color="#E9B473"/>
<stop offset="0.8734" stop-color="#BB9054"/>
<stop offset="1" stop-color="#947039"/>
</linearGradient>
<linearGradient id="paint1_linear_706_17499" x1="29.034" y1="-12.3668" x2="13.0001" y2="58.8838" gradientUnits="userSpaceOnUse">
<stop stop-color="#BD8B5B"/>
<stop offset="0.1872" stop-color="#947039"/>
<stop offset="0.3691" stop-color="#C4975A"/>
<stop offset="0.5389" stop-color="#EBB675"/>
<stop offset="0.6275" stop-color="#FAC27F"/>
<stop offset="0.7099" stop-color="#E9B473"/>
<stop offset="0.8734" stop-color="#BB9054"/>
<stop offset="1" stop-color="#947039"/>
</linearGradient>
<linearGradient id="paint2_linear_706_17499" x1="20.7521" y1="-14.2299" x2="4.71776" y2="57.0224" gradientUnits="userSpaceOnUse">
<stop stop-color="#BD8B5B"/>
<stop offset="0.1872" stop-color="#947039"/>
<stop offset="0.3691" stop-color="#C4975A"/>
<stop offset="0.5389" stop-color="#EBB675"/>
<stop offset="0.6275" stop-color="#FAC27F"/>
<stop offset="0.7099" stop-color="#E9B473"/>
<stop offset="0.8734" stop-color="#BB9054"/>
<stop offset="1" stop-color="#947039"/>
</linearGradient>
<linearGradient id="paint3_linear_706_17499" x1="26.4243" y1="-12.955" x2="10.3904" y2="58.296" gradientUnits="userSpaceOnUse">
<stop stop-color="#BD8B5B"/>
<stop offset="0.1872" stop-color="#947039"/>
<stop offset="0.3691" stop-color="#C4975A"/>
<stop offset="0.5389" stop-color="#EBB675"/>
<stop offset="0.6275" stop-color="#FAC27F"/>
<stop offset="0.7099" stop-color="#E9B473"/>
<stop offset="0.8734" stop-color="#BB9054"/>
<stop offset="1" stop-color="#947039"/>
</linearGradient>
<linearGradient id="paint4_linear_706_17499" x1="32.0081" y1="-11.6981" x2="15.9747" y2="59.5505" gradientUnits="userSpaceOnUse">
<stop stop-color="#BD8B5B"/>
<stop offset="0.1872" stop-color="#947039"/>
<stop offset="0.3691" stop-color="#C4975A"/>
<stop offset="0.5389" stop-color="#EBB675"/>
<stop offset="0.6275" stop-color="#FAC27F"/>
<stop offset="0.7099" stop-color="#E9B473"/>
<stop offset="0.8734" stop-color="#BB9054"/>
<stop offset="1" stop-color="#947039"/>
</linearGradient>
<linearGradient id="paint5_linear_706_17499" x1="34.6251" y1="-11.1056" x2="18.5922" y2="60.141" gradientUnits="userSpaceOnUse">
<stop stop-color="#BD8B5B"/>
<stop offset="0.1872" stop-color="#947039"/>
<stop offset="0.3691" stop-color="#C4975A"/>
<stop offset="0.5389" stop-color="#EBB675"/>
<stop offset="0.6275" stop-color="#FAC27F"/>
<stop offset="0.7099" stop-color="#E9B473"/>
<stop offset="0.8734" stop-color="#BB9054"/>
<stop offset="1" stop-color="#947039"/>
</linearGradient>
<linearGradient id="paint6_linear_706_17499" x1="15.9196" y1="-15.3141" x2="-0.114013" y2="55.9354" gradientUnits="userSpaceOnUse">
<stop stop-color="#BD8B5B"/>
<stop offset="0.1872" stop-color="#947039"/>
<stop offset="0.3691" stop-color="#C4975A"/>
<stop offset="0.5389" stop-color="#EBB675"/>
<stop offset="0.6275" stop-color="#FAC27F"/>
<stop offset="0.7099" stop-color="#E9B473"/>
<stop offset="0.8734" stop-color="#BB9054"/>
<stop offset="1" stop-color="#947039"/>
</linearGradient>
<linearGradient id="paint7_linear_706_17499" x1="31.7525" y1="-11.7544" x2="15.7185" y2="59.497" gradientUnits="userSpaceOnUse">
<stop stop-color="#BD8B5B"/>
<stop offset="0.1872" stop-color="#947039"/>
<stop offset="0.3691" stop-color="#C4975A"/>
<stop offset="0.5389" stop-color="#EBB675"/>
<stop offset="0.6275" stop-color="#FAC27F"/>
<stop offset="0.7099" stop-color="#E9B473"/>
<stop offset="0.8734" stop-color="#BB9054"/>
<stop offset="1" stop-color="#947039"/>
</linearGradient>
<clipPath id="clip0_706_17499">
<rect width="24" height="31" fill="white" transform="translate(28.9531) rotate(66.5706)"/>
</clipPath>
</defs>
</svg>
