<svg width="90" height="29" viewBox="0 0 90 29" fill="none" xmlns="http://www.w3.org/2000/svg">
<path d="M13.0501 18.5701C12.669 18.2617 12.1926 18.0561 11.7163 17.9533C11.2399 17.7477 10.7636 17.7477 10.2872 17.7477C10.0014 17.7477 9.71559 17.7477 9.42977 17.8505C9.14396 17.9533 8.95341 18.0561 8.76287 18.1589C8.57233 18.2617 8.38179 18.4673 8.28651 18.6729C8.19124 18.8785 8.09597 19.0841 8.09597 19.2897C8.09597 19.4953 8.09597 19.7009 8.19124 19.8037C8.28651 19.9065 8.38179 20.1122 8.57233 20.215C8.76287 20.3178 8.95341 20.4206 9.23923 20.5234C9.52504 20.6262 9.81086 20.6262 10.0967 20.729L10.7636 20.8318C11.1447 20.9346 11.5257 20.9346 11.9068 21.1402C12.2879 21.243 12.5737 21.4486 12.8595 21.6542C13.1454 21.8598 13.4312 22.1682 13.5264 22.4766C13.717 22.785 13.8123 23.1963 13.8123 23.7103C13.8123 24.2243 13.717 24.7383 13.5264 25.1495C13.3359 25.5607 13.0501 25.8692 12.669 26.1776C12.2879 26.486 11.9068 26.6916 11.4305 26.7944C10.9541 26.8972 10.4778 27 9.90613 27C9.62031 27 9.23923 27 8.85814 26.8972C8.47706 26.7944 8.19124 26.7944 7.81016 26.5888C7.42907 26.486 7.14326 26.2804 6.85744 26.1776C6.57163 25.972 6.28581 25.7664 6 25.5608L6.85744 24.2243C7.04799 24.4299 7.23853 24.5327 7.42907 24.6355C7.61961 24.7383 7.90543 24.9439 8.19124 25.0467C8.47706 25.1495 8.76287 25.2523 9.04869 25.2523C9.3345 25.3551 9.62031 25.3551 9.90613 25.3551C10.1919 25.3551 10.4778 25.3551 10.7636 25.2523C11.0494 25.1495 11.2399 25.0467 11.4305 24.9439C11.621 24.8411 11.8116 24.6355 11.9068 24.4299C12.0021 24.2243 12.0974 24.0187 12.0974 23.8131C12.0974 23.4019 11.9068 23.0935 11.5257 22.8879C11.1447 22.6822 10.573 22.4766 9.90613 22.3738L9.42977 22.271C9.04869 22.1682 8.76287 22.1682 8.38179 21.9626C8.0007 21.8598 7.71489 21.6542 7.42907 21.4486C7.14326 21.243 6.95271 20.9346 6.76217 20.6262C6.57163 20.3178 6.47636 19.9065 6.47636 19.3925C6.47636 18.8785 6.57163 18.3645 6.76217 18.0561C6.95271 17.6449 7.23853 17.3364 7.61961 17.028C8.0007 16.7196 8.38179 16.514 8.85814 16.4112C9.3345 16.3084 9.81086 16.2056 10.2872 16.2056C10.9541 16.2056 11.621 16.3084 12.1926 16.514C12.7643 16.7196 13.2406 17.028 13.8123 17.3364L13.0501 18.5701ZM18.3853 19.3925C18.8616 19.3925 19.2427 19.4953 19.6238 19.7009C20.0049 19.9065 20.2907 20.1122 20.5765 20.4206C20.8623 20.729 21.0529 21.1402 21.2434 21.5514C21.434 21.9626 21.434 22.4766 21.434 23.0935C21.434 23.1963 21.434 23.2991 21.434 23.4019C21.434 23.5047 21.434 23.6075 21.434 23.7103H16.5751C16.5751 24.0187 16.6704 24.3271 16.8609 24.5327C16.9562 24.7383 17.1468 24.9439 17.3373 25.0467C17.5278 25.1495 17.7184 25.2523 17.9089 25.3551C18.0995 25.4579 18.3853 25.4579 18.5758 25.4579C18.8616 25.4579 19.2427 25.3551 19.5285 25.2523C19.8144 25.1495 20.1954 24.9439 20.4813 24.7383L21.2434 25.8692C20.8623 26.2804 20.386 26.486 20.0049 26.6916C19.5285 26.7944 19.0522 26.8972 18.5758 26.8972C18.0995 26.8972 17.6231 26.7944 17.242 26.5888C16.8609 26.3832 16.4799 26.1776 16.194 25.8692C15.9082 25.5607 15.6224 25.1495 15.5271 24.7383C15.3366 24.3271 15.2413 23.8131 15.2413 23.1963C15.2413 22.6822 15.3366 22.1682 15.5271 21.6542C15.7177 21.243 15.9082 20.8318 16.194 20.4206C16.4799 20.1122 16.8609 19.8037 17.242 19.7009C17.4326 19.4953 17.8137 19.3925 18.3853 19.3925ZM18.29 20.8318C18.0042 20.8318 17.8137 20.8318 17.6231 20.9346C17.4326 21.0374 17.242 21.1402 17.1468 21.3458C16.9562 21.5514 16.8609 21.6542 16.7657 21.8598C16.6704 22.0654 16.5751 22.271 16.5751 22.5794H20.0049C19.9096 22.0654 19.7191 21.5514 19.4333 21.243C19.1475 20.9346 18.7664 20.8318 18.29 20.8318ZM25.9117 19.3925C26.3881 19.3925 26.8644 19.4953 27.2455 19.7009C27.6266 19.9065 28.0077 20.215 28.2935 20.5234L27.3408 21.5514C27.1503 21.3458 26.8644 21.1402 26.5786 21.0374C26.2928 20.9346 26.007 20.8318 25.7212 20.8318C25.4354 20.8318 25.1496 20.9346 24.959 21.0374C24.6732 21.1402 24.4827 21.3458 24.3874 21.5514C24.1968 21.757 24.1016 21.9626 24.0063 22.271C23.911 22.5794 23.8158 22.8879 23.8158 23.1963C23.8158 23.5047 23.911 23.8131 24.0063 24.1215C24.1016 24.4299 24.1968 24.6355 24.3874 24.8411C24.5779 25.0467 24.7685 25.1495 24.959 25.3551C25.1496 25.4579 25.4354 25.5608 25.7212 25.5608C26.007 25.5608 26.2928 25.4579 26.5786 25.3551C26.8644 25.2523 27.055 25.0467 27.3408 24.8411L28.1982 25.8692C27.9124 26.2804 27.5313 26.486 27.1503 26.6916C26.7692 26.8972 26.2928 27 25.8165 27C25.3401 27 24.8637 26.8972 24.3874 26.6916C24.0063 26.486 23.6252 26.2804 23.3394 25.8692C23.0536 25.5607 22.7678 25.1495 22.6725 24.6355C22.482 24.2243 22.3867 23.7103 22.3867 23.1963C22.3867 22.6822 22.482 22.1682 22.6725 21.757C22.863 21.3458 23.0536 20.9346 23.3394 20.5234C23.6252 20.215 24.0063 19.9065 24.3874 19.7009C24.959 19.4953 25.4354 19.3925 25.9117 19.3925ZM35.82 23.7103C35.82 24.2243 35.7247 24.7383 35.5341 25.1495C35.3436 25.5607 35.1531 25.8692 34.8672 26.1776C34.5814 26.486 34.2956 26.5888 33.9145 26.7944C33.5334 26.8972 33.1524 27 32.7713 27C32.3902 27 32.0091 26.8972 31.628 26.7944C31.2469 26.6916 30.9611 26.486 30.6753 26.1776C30.3895 25.972 30.1989 25.5607 30.0084 25.1495C29.8179 24.7383 29.7226 24.2243 29.7226 23.7103V19.5981H31.1517V23.5047C31.1517 23.8131 31.1517 24.1215 31.2469 24.3271C31.3422 24.5327 31.4375 24.7383 31.628 24.9439C31.8186 25.0467 31.9138 25.1495 32.1044 25.2523C32.2949 25.3551 32.4855 25.3551 32.7713 25.3551C32.9618 25.3551 33.2476 25.3551 33.4382 25.2523C33.6287 25.1495 33.8193 25.0467 33.9145 24.9439C34.1051 24.8411 34.2003 24.6355 34.2956 24.3271C34.3909 24.1215 34.3909 23.8131 34.3909 23.5047V19.5981H35.82V23.7103ZM41.0599 19.3925C41.2504 19.3925 41.441 19.3925 41.6315 19.3925C41.8221 19.3925 42.0126 19.4953 42.1079 19.4953L41.7268 21.0374C41.5362 20.9346 41.441 20.9346 41.1552 20.8318C40.9646 20.8318 40.7741 20.729 40.5835 20.729C40.393 20.729 40.1072 20.729 39.9166 20.8318C39.7261 20.9346 39.5355 21.0374 39.4403 21.243C39.345 21.4486 39.1545 21.6542 39.1545 21.8598C39.0592 22.0654 39.0592 22.3738 39.0592 22.6822V26.5888H37.6301V19.4953H39.0592V20.3178C39.2497 20.0093 39.5355 19.7009 39.9166 19.5981C40.2024 19.4953 40.5835 19.3925 41.0599 19.3925ZM45.8235 19.3925C46.2998 19.3925 46.6809 19.4953 47.062 19.7009C47.4431 19.9065 47.7289 20.1122 48.0147 20.4206C48.3005 20.729 48.491 21.1402 48.6816 21.5514C48.8721 21.9626 48.8721 22.4766 48.8721 23.0935C48.8721 23.1963 48.8721 23.2991 48.8721 23.4019C48.8721 23.5047 48.8721 23.6075 48.8721 23.7103H44.1086C44.1086 24.0187 44.2038 24.3271 44.3944 24.5327C44.4897 24.7383 44.6802 24.9439 44.8707 25.0467C45.0613 25.1495 45.2518 25.2523 45.4424 25.3551C45.6329 25.4579 45.9187 25.4579 46.1093 25.4579C46.3951 25.4579 46.7762 25.3551 47.062 25.2523C47.3478 25.1495 47.7289 24.9439 48.0147 24.7383L48.6816 25.8692C48.3005 26.2804 47.8242 26.486 47.4431 26.6916C46.9667 26.7944 46.4903 26.8972 46.014 26.8972C45.5376 26.8972 45.0613 26.7944 44.6802 26.5888C44.2991 26.3832 43.918 26.1776 43.6322 25.8692C43.3464 25.5607 43.0606 25.1495 42.9653 24.7383C42.7748 24.3271 42.6795 23.8131 42.6795 23.1963C42.6795 22.6822 42.7748 22.1682 42.9653 21.6542C43.1558 21.243 43.3464 20.8318 43.6322 20.4206C43.918 20.1122 44.2991 19.8037 44.6802 19.7009C44.8707 19.4953 45.3471 19.3925 45.8235 19.3925ZM45.8235 20.8318C45.5376 20.8318 45.3471 20.8318 45.1565 20.9346C44.966 21.0374 44.7755 21.1402 44.6802 21.3458C44.4897 21.5514 44.3944 21.6542 44.2991 21.8598C44.2038 22.0654 44.1086 22.271 44.1086 22.5794H47.5383C47.4431 22.0654 47.2525 21.5514 46.9667 21.243C46.6809 20.9346 46.2998 20.8318 45.8235 20.8318ZM55.16 16.1028C55.5411 16.1028 56.0175 16.1028 56.3986 16.2056C56.7797 16.3084 57.1607 16.4112 57.5418 16.6168C57.9229 16.8224 58.2087 17.028 58.4945 17.3364C58.7804 17.6449 58.9709 17.9533 59.1614 18.2617L57.8276 19.1869C57.5418 18.6729 57.1607 18.3645 56.6844 18.0561C56.208 17.7477 55.7317 17.6449 55.16 17.6449C54.6837 17.6449 54.2073 17.7477 53.8263 17.9533C53.4452 18.1589 53.0641 18.3645 52.7783 18.7757C52.4925 19.0841 52.2066 19.4953 52.1114 20.0093C51.9208 20.5234 51.8256 20.9346 51.8256 21.5514C51.8256 22.0654 51.9208 22.5794 52.1114 23.0935C52.3019 23.6075 52.4925 23.9159 52.7783 24.3271C53.0641 24.6355 53.4452 24.9439 53.8263 25.0467C54.2073 25.2523 54.6837 25.3551 55.16 25.3551C55.7317 25.3551 56.208 25.2523 56.6844 24.9439C57.1607 24.6355 57.5418 24.3271 57.8276 23.8131L59.0662 24.8411C58.8756 25.1495 58.5898 25.4579 58.304 25.7664C58.0182 26.0748 57.7324 26.2804 57.3513 26.3832C56.9702 26.5888 56.6844 26.6916 56.3033 26.7944C55.9222 26.8972 55.5411 26.8972 55.0648 26.8972C54.3026 26.8972 53.6357 26.7944 53.0641 26.486C52.4925 26.1776 51.9208 25.8692 51.4445 25.3551C50.9681 24.8411 50.6823 24.3271 50.3965 23.6075C50.1107 22.9907 50.0154 22.271 50.0154 21.4486C50.0154 20.6262 50.1107 19.9065 50.3965 19.2897C50.6823 18.6729 50.9681 18.0561 51.4445 17.5421C51.9208 17.028 52.3972 16.7196 53.0641 16.4112C53.731 16.3084 54.3979 16.1028 55.16 16.1028ZM63.6392 19.3925C64.1156 19.3925 64.5919 19.4953 65.0683 19.7009C65.5446 19.9065 65.8304 20.1121 66.2115 20.5234C66.4973 20.8318 66.7832 21.243 66.9737 21.757C67.1642 22.1682 67.2595 22.6822 67.2595 23.1963C67.2595 23.7103 67.1642 24.2243 66.9737 24.6355C66.7832 25.0467 66.5926 25.4579 66.2115 25.8692C65.9257 26.1776 65.5446 26.486 65.0683 26.6916C64.5919 26.8972 64.2108 27 63.6392 27C63.1628 27 62.6865 26.8972 62.2101 26.6916C61.7338 26.486 61.448 26.2804 61.0669 25.8692C60.7811 25.5607 60.4952 25.1495 60.3047 24.6355C60.1142 24.2243 60.0189 23.7103 60.0189 23.1963C60.0189 22.6822 60.1142 22.1682 60.3047 21.757C60.4952 21.3458 60.6858 20.9346 61.0669 20.5234C61.3527 20.215 61.7338 19.9065 62.2101 19.7009C62.6865 19.4953 63.1628 19.3925 63.6392 19.3925ZM63.6392 20.8318C63.3534 20.8318 63.0676 20.9346 62.7818 21.0374C62.4959 21.1402 62.3054 21.3458 62.1149 21.5514C61.9243 21.757 61.829 21.9626 61.6385 22.271C61.5432 22.5794 61.448 22.8879 61.448 23.1963C61.448 23.5047 61.5432 23.8131 61.6385 24.1215C61.7338 24.4299 61.9243 24.6355 62.1149 24.8411C62.3054 25.0467 62.4959 25.1495 62.7818 25.3551C63.0676 25.4579 63.3534 25.5608 63.6392 25.5608C63.925 25.5608 64.2108 25.4579 64.4967 25.3551C64.7825 25.2523 64.973 25.0467 65.1635 24.8411C65.3541 24.6355 65.4494 24.4299 65.6399 24.1215C65.7352 23.8131 65.8304 23.5047 65.8304 23.1963C65.8304 22.8879 65.7352 22.5794 65.6399 22.271C65.5446 21.9626 65.3541 21.757 65.1635 21.5514C64.973 21.3458 64.7825 21.243 64.4967 21.0374C64.2108 20.9346 63.925 20.8318 63.6392 20.8318ZM71.5467 19.3925C72.0231 19.3925 72.4042 19.4953 72.7853 19.7009C73.1663 19.9065 73.4522 20.1122 73.6427 20.4206V16H75.0718V26.6916H73.6427V25.8692C73.4522 26.1776 73.1663 26.486 72.7853 26.5888C72.4042 26.7944 72.0231 26.8972 71.5467 26.8972C71.0704 26.8972 70.6893 26.7944 70.2129 26.5888C69.8319 26.3832 69.4508 26.1776 69.1649 25.7664C68.8791 25.4579 68.5933 25.0467 68.498 24.5327C68.3075 24.1215 68.2122 23.6075 68.2122 22.9907C68.2122 22.4766 68.3075 21.9626 68.498 21.4486C68.6886 21.0374 68.8791 20.6262 69.1649 20.215C69.4508 19.9065 69.8319 19.5981 70.2129 19.3925C70.594 19.4953 71.0704 19.3925 71.5467 19.3925ZM71.642 20.8318C71.3562 20.8318 71.0704 20.9346 70.7846 21.0374C70.4987 21.1402 70.3082 21.3458 70.1177 21.5514C69.9271 21.757 69.8319 21.9626 69.7366 22.271C69.6413 22.5794 69.6413 22.8879 69.6413 23.1963C69.6413 23.5047 69.6413 23.8131 69.7366 24.1215C69.8319 24.4299 69.9271 24.6355 70.1177 24.8411C70.3082 25.0467 70.4987 25.2523 70.7846 25.3551C71.0704 25.4579 71.2609 25.5608 71.642 25.5608C71.9278 25.5608 72.2136 25.4579 72.4995 25.3551C72.7853 25.2523 72.9758 25.0467 73.1663 24.8411C73.3569 24.6355 73.4522 24.4299 73.5474 24.1215C73.6427 23.8131 73.738 23.5047 73.738 23.1963C73.738 22.8879 73.6427 22.5794 73.5474 22.271C73.4522 21.9626 73.3569 21.757 73.1663 21.5514C72.9758 21.3458 72.7853 21.1402 72.4995 21.0374C72.2136 20.9346 72.0231 20.8318 71.642 20.8318ZM79.8353 19.3925C80.3117 19.3925 80.6928 19.4953 81.0739 19.7009C81.455 19.9065 81.7408 20.1122 82.0266 20.4206C82.3124 20.729 82.5029 21.1402 82.6935 21.5514C82.884 21.9626 82.884 22.4766 82.884 23.0935C82.884 23.1963 82.884 23.2991 82.884 23.4019C82.884 23.5047 82.884 23.6075 82.884 23.7103H78.0252C78.0252 24.0187 78.1205 24.3271 78.311 24.5327C78.4063 24.7383 78.5968 24.9439 78.7874 25.0467C78.9779 25.1495 79.1684 25.2523 79.359 25.3551C79.5495 25.4579 79.8353 25.4579 80.0259 25.4579C80.3117 25.4579 80.6928 25.3551 80.9786 25.2523C81.2644 25.1495 81.6455 24.9439 81.9313 24.7383L82.5982 25.8692C82.2171 26.2804 81.7408 26.486 81.3597 26.6916C80.8833 26.7944 80.407 26.8972 79.9306 26.8972C79.4543 26.8972 78.9779 26.7944 78.5968 26.5888C78.2157 26.3832 77.8346 26.1776 77.5488 25.8692C77.263 25.5607 76.9772 25.1495 76.8819 24.7383C76.6914 24.3271 76.5961 23.8131 76.5961 23.1963C76.5961 22.6822 76.6914 22.1682 76.8819 21.6542C77.0725 21.243 77.263 20.8318 77.5488 20.4206C77.8346 20.1122 78.2157 19.8037 78.5968 19.7009C78.8826 19.4953 79.359 19.3925 79.8353 19.3925ZM79.7401 20.8318C79.4543 20.8318 79.2637 20.8318 79.0732 20.9346C78.8826 21.0374 78.6921 21.1402 78.5968 21.3458C78.4063 21.5514 78.311 21.6542 78.2157 21.8598C78.1205 22.0654 78.0252 22.271 78.0252 22.5794H81.455C81.3597 22.0654 81.1691 21.5514 80.8833 21.243C80.5975 20.9346 80.2164 20.8318 79.7401 20.8318Z" fill="#F59E1F"/>
<path d="M18.0179 12.7027H16.378V4.18018L13.484 11.6126H11.7476L8.75712 4.18018V12.6036H7.11719V2.2973H9.62532L12.5193 9.72973L15.4133 2.2973H17.9215V12.7027H18.0179ZM26.6035 12.7027H25.06V11.8108C24.8671 12.1081 24.4812 12.4054 24.1918 12.6036C23.8059 12.8018 23.4201 12.9009 22.9377 12.9009C22.4554 12.9009 21.9731 12.8018 21.5872 12.6036C21.2013 12.4054 20.8155 12.2072 20.5261 11.8108C20.2367 11.5135 19.9473 11.1171 19.7543 10.6216C19.5614 10.1261 19.4649 9.63063 19.4649 9.13514C19.4649 8.63964 19.5614 8.04504 19.7543 7.64865C19.9473 7.15315 20.1402 6.75676 20.5261 6.45946C20.8155 6.16216 21.2013 5.86486 21.5872 5.66667C21.9731 5.46847 22.4554 5.36937 22.9377 5.36937C23.4201 5.36937 23.9024 5.46847 24.1918 5.66667C24.5777 5.86486 24.8671 6.06306 25.06 6.45946V5.56757H26.6035V12.7027ZM23.1307 6.85586C22.8413 6.85586 22.5519 6.95495 22.2625 7.05405C21.9731 7.15315 21.7801 7.35135 21.5872 7.54955C21.3943 7.74775 21.2978 7.94595 21.2013 8.24324C21.1049 8.54054 21.1049 8.83784 21.1049 9.13514C21.1049 9.43243 21.1049 9.72973 21.2013 10.027C21.2978 10.3243 21.3943 10.5225 21.5872 10.7207C21.7801 10.9189 21.9731 11.1171 22.2625 11.2162C22.5519 11.3153 22.8413 11.4144 23.1307 11.4144C23.4201 11.4144 23.7095 11.3153 23.9989 11.2162C24.2883 11.1171 24.4812 10.9189 24.6741 10.7207C24.8671 10.5225 24.9635 10.3243 25.06 10.027C25.1565 9.72973 25.2529 9.43243 25.2529 9.13514C25.2529 8.83784 25.1565 8.54054 25.06 8.24324C24.9635 7.94595 24.7706 7.74775 24.6741 7.54955C24.4812 7.35135 24.2883 7.15315 23.9989 7.05405C23.7095 6.85586 23.4201 6.85586 23.1307 6.85586ZM33.5491 7.35135C33.4526 7.25225 33.3561 7.25225 33.1632 7.15315C32.9703 7.05405 32.8738 7.05405 32.6809 6.95495C32.4879 6.85585 32.295 6.85586 32.1021 6.85586C31.9091 6.85586 31.7162 6.75676 31.4268 6.75676C31.0409 6.75676 30.6551 6.85585 30.4621 6.95495C30.2692 7.15315 30.0763 7.35135 30.0763 7.54955C30.0763 7.64865 30.0763 7.74775 30.1727 7.84685C30.2692 7.94595 30.2692 8.04504 30.4621 8.04504C30.5586 8.14414 30.6551 8.14414 30.848 8.14414C30.9445 8.14414 31.1374 8.24324 31.3303 8.24324L32.0056 8.34234C32.7774 8.44144 33.3561 8.63964 33.742 9.03604C34.1279 9.33333 34.4173 9.82883 34.4173 10.4234C34.4173 10.7207 34.3208 11.1171 34.2244 11.3153C34.1279 11.6126 33.8385 11.8108 33.6455 12.009C33.3561 12.2072 33.0667 12.4054 32.6809 12.5045C32.295 12.6036 31.8127 12.7027 31.3303 12.7027C31.1374 12.7027 30.9445 12.7027 30.7515 12.7027C30.5586 12.7027 30.2692 12.6036 29.9798 12.6036C29.6904 12.5045 29.401 12.4054 29.2081 12.3063C28.9187 12.2072 28.6293 12.009 28.4363 11.8108L29.1116 10.6216C29.2081 10.7207 29.401 10.8198 29.4975 10.9189C29.6904 11.018 29.7869 11.1171 29.9798 11.1171C30.1727 11.2162 30.3657 11.2162 30.5586 11.3153C30.7515 11.3153 31.0409 11.4144 31.3303 11.4144C31.8127 11.4144 32.1985 11.3153 32.4879 11.2162C32.7773 11.018 32.8738 10.8198 32.8738 10.6216C32.8738 10.4234 32.7773 10.2252 32.5844 10.1261C32.3915 10.027 32.1021 9.92793 31.7162 9.82883L31.0409 9.72973C30.2692 9.63063 29.6904 9.43243 29.3045 9.03604C28.9187 8.63964 28.7257 8.24324 28.7257 7.64865C28.7257 7.25225 28.8222 6.95496 28.9187 6.65766C29.0151 6.36036 29.2081 6.16216 29.4975 5.96396C29.7869 5.76577 30.0763 5.66667 30.3657 5.46847C30.7515 5.36937 31.1374 5.27027 31.5233 5.27027C32.1021 5.27027 32.5844 5.36937 33.0667 5.46847C33.5491 5.56757 33.9349 5.76577 34.3208 6.06306L33.5491 7.35135ZM40.6876 6.95495H38.083V10.027C38.083 10.2252 38.083 10.4234 38.1795 10.6216C38.276 10.8198 38.276 10.9189 38.3724 11.018C38.4689 11.1171 38.5654 11.2162 38.7583 11.2162C38.8548 11.2162 39.0477 11.3153 39.1442 11.3153C39.3371 11.3153 39.6265 11.3153 39.8194 11.2162C40.1088 11.1171 40.3018 11.018 40.4947 10.9189L41.0735 12.1081C40.7841 12.3063 40.4947 12.5045 40.1088 12.6036C39.723 12.7027 39.3371 12.8018 38.9512 12.8018C38.1795 12.8018 37.6007 12.6036 37.1184 12.1081C36.636 11.6126 36.4431 10.9189 36.4431 10.027V6.85586H35.0926V5.46847H36.4431V3.28829H37.9866V5.46847H40.5912V6.95495H40.6876ZM45.318 5.36937C45.8004 5.36937 46.2827 5.46847 46.6686 5.66667C47.0544 5.86486 47.4403 6.06306 47.7297 6.45946C48.0191 6.75676 48.212 7.15315 48.405 7.64865C48.5979 8.14414 48.6944 8.63964 48.6944 9.13514C48.6944 9.23423 48.6944 9.33333 48.6944 9.43243C48.6944 9.53153 48.6944 9.63063 48.6944 9.72973H43.5816C43.5816 10.027 43.6781 10.3243 43.871 10.5225C43.9675 10.7207 44.1604 10.9189 44.3534 11.1171C44.5463 11.2162 44.7392 11.4144 44.9322 11.4144C45.1251 11.5135 45.4145 11.5135 45.6074 11.5135C45.9933 11.5135 46.2827 11.4144 46.6686 11.3153C47.0544 11.2162 47.3438 11.018 47.6332 10.7207L48.405 11.8108C48.0191 12.2072 47.5368 12.4054 47.0544 12.6036C46.5721 12.7027 46.0898 12.8018 45.511 12.8018C45.0286 12.8018 44.5463 12.7027 44.064 12.5045C43.6781 12.3063 43.2922 12.1081 42.9064 11.7117C42.617 11.4144 42.3276 11.018 42.1346 10.5225C41.9417 10.027 41.8452 9.53153 41.8452 9.03604C41.8452 8.44144 41.9417 7.94595 42.1346 7.54955C42.3276 7.05405 42.5205 6.65766 42.8099 6.36036C43.0993 6.06306 43.4852 5.76577 43.871 5.56757C44.3534 5.46847 44.8357 5.36937 45.318 5.36937ZM45.318 6.75676C45.0286 6.75676 44.8357 6.75676 44.6428 6.85586C44.4498 6.95496 44.2569 7.05405 44.064 7.25225C43.871 7.45045 43.7746 7.54955 43.6781 7.84685C43.5816 8.04505 43.4852 8.34234 43.4852 8.54054H47.0544C46.958 7.94595 46.765 7.54955 46.4756 7.25225C46.1862 6.85586 45.8004 6.75676 45.318 6.75676ZM53.8071 5.36937C54 5.36937 54.2894 5.36937 54.3859 5.36937C54.5788 5.36937 54.7718 5.46847 54.9647 5.56757L54.5788 7.05405C54.3859 6.95495 54.193 6.95496 54 6.85586C53.8071 6.85586 53.6142 6.75676 53.4212 6.75676C53.2283 6.75676 52.9389 6.75676 52.746 6.85586C52.553 6.95496 52.3601 7.05405 52.2636 7.25225C52.1672 7.45045 51.9742 7.64865 51.8778 7.84685C51.7813 8.04505 51.7813 8.34234 51.7813 8.63964V12.5045H50.2378V5.36937H51.6848V6.16216C51.8778 5.86486 52.1672 5.56757 52.553 5.36937C53.0354 5.46847 53.4212 5.36937 53.8071 5.36937ZM59.0163 5.36937C59.4986 5.36937 59.981 5.46847 60.4633 5.66667C60.9457 5.86486 61.3315 6.16216 61.6209 6.55856L60.6562 7.64865C60.3668 7.45045 60.1739 7.25225 59.8845 7.05405C59.5951 6.95495 59.3057 6.85586 59.0163 6.85586C58.7269 6.85586 58.4375 6.95495 58.2446 7.05405C57.9552 7.15315 57.7622 7.35135 57.5693 7.54955C57.3764 7.74775 57.2799 7.94595 57.1834 8.24324C57.087 8.54054 56.9905 8.83784 56.9905 9.13514C56.9905 9.43243 57.087 9.72973 57.1834 10.027C57.2799 10.3243 57.4728 10.5225 57.5693 10.7207C57.7622 10.9189 57.9552 11.1171 58.2446 11.2162C58.534 11.3153 58.7269 11.4144 59.0163 11.4144C59.3057 11.4144 59.6916 11.3153 59.981 11.2162C60.2704 11.1171 60.5598 10.9189 60.7527 10.7207L61.7174 11.8108C61.428 12.2072 61.0421 12.5045 60.5598 12.7027C60.0774 12.9009 59.5951 13 59.1128 13C58.534 13 58.0516 12.9009 57.6658 12.7027C57.1834 12.5045 56.7976 12.2072 56.5082 11.9099C56.2188 11.6126 55.9294 11.2162 55.7364 10.7207C55.5435 10.2252 55.447 9.72973 55.447 9.23423C55.447 8.73874 55.5435 8.24324 55.7364 7.74775C55.9294 7.25225 56.1223 6.85586 56.5082 6.55856C56.7976 6.26126 57.1834 5.96396 57.6658 5.76577C57.9552 5.46847 58.4375 5.36937 59.0163 5.36937ZM69.6277 12.7027H68.0842V11.8108C67.8913 12.1081 67.5054 12.4054 67.216 12.6036C66.8301 12.8018 66.4443 12.9009 65.9619 12.9009C65.4796 12.9009 64.9972 12.8018 64.6114 12.6036C64.2255 12.4054 63.8396 12.2072 63.5503 11.8108C63.2608 11.5135 62.9715 11.1171 62.7785 10.6216C62.5856 10.1261 62.4891 9.63063 62.4891 9.13514C62.4891 8.63964 62.5856 8.04504 62.7785 7.64865C62.9715 7.15315 63.1644 6.75676 63.5503 6.45946C63.8396 6.16216 64.2255 5.86486 64.6114 5.66667C64.9972 5.46847 65.4796 5.36937 65.9619 5.36937C66.4443 5.36937 66.9266 5.46847 67.216 5.66667C67.6019 5.86486 67.8913 6.06306 68.0842 6.45946V5.56757H69.6277V12.7027ZM66.1549 6.85586C65.8655 6.85586 65.5761 6.95495 65.2867 7.05405C64.9973 7.15315 64.8043 7.35135 64.6114 7.54955C64.4184 7.74775 64.322 7.94595 64.2255 8.24324C64.1291 8.54054 64.129 8.83784 64.129 9.13514C64.129 9.43243 64.2255 9.72973 64.2255 10.027C64.322 10.3243 64.4184 10.5225 64.6114 10.7207C64.8043 10.9189 64.9973 11.1171 65.2867 11.2162C65.5761 11.3153 65.8655 11.4144 66.1549 11.4144C66.4443 11.4144 66.7337 11.3153 67.0231 11.2162C67.3125 11.1171 67.5054 10.9189 67.6983 10.7207C67.8913 10.5225 67.9877 10.3243 68.0842 10.027C68.1807 9.72973 68.2771 9.43243 68.2771 9.13514C68.2771 8.83784 68.1807 8.54054 68.0842 8.24324C67.9877 7.94595 67.7948 7.74775 67.6983 7.54955C67.5054 7.35135 67.3125 7.15315 67.0231 7.05405C66.7337 6.85586 66.4443 6.85586 66.1549 6.85586ZM75.3192 5.36937C75.5121 5.36937 75.8015 5.36937 75.898 5.36937C76.0909 5.36937 76.2839 5.46847 76.4768 5.56757L76.0909 7.05405C75.898 6.95495 75.7051 6.95496 75.5121 6.85586C75.3192 6.85586 75.1263 6.75676 74.9333 6.75676C74.7404 6.75676 74.451 6.75676 74.2581 6.85586C74.0651 6.95496 73.8722 7.05405 73.7757 7.25225C73.6793 7.45045 73.4863 7.64865 73.3899 7.84685C73.2934 8.04505 73.2934 8.34234 73.2934 8.63964V12.5045H71.7499V5.36937H73.1969V6.16216C73.3899 5.86486 73.6793 5.56757 74.0651 5.36937C74.5475 5.46847 74.9333 5.36937 75.3192 5.36937ZM80.3355 5.36937C80.8178 5.36937 81.3001 5.46847 81.5895 5.66667C81.9754 5.86486 82.2648 6.06306 82.4577 6.45946V2H84.0012V12.7027H82.4577V11.8108C82.2648 12.1081 81.8789 12.4054 81.5895 12.6036C81.2037 12.8018 80.8178 12.9009 80.3355 12.9009C79.8531 12.9009 79.3708 12.8018 78.9849 12.6036C78.5991 12.4054 78.2132 12.2072 77.9238 11.8108C77.6344 11.5135 77.345 11.1171 77.1521 10.6216C76.9591 10.1261 76.8627 9.63063 76.8627 9.13514C76.8627 8.63964 76.9591 8.04504 77.1521 7.64865C77.345 7.15315 77.5379 6.75676 77.9238 6.45946C78.2132 6.16216 78.5991 5.86486 78.9849 5.66667C79.3708 5.46847 79.8531 5.36937 80.3355 5.36937ZM80.5284 6.85586C80.239 6.85586 79.9496 6.95495 79.6602 7.05405C79.3708 7.15315 79.1779 7.35135 78.9849 7.54955C78.792 7.74775 78.6955 7.94595 78.5991 8.24324C78.4061 8.54054 78.4061 8.83784 78.4061 9.13514C78.4061 9.43243 78.5026 9.72973 78.5026 10.027C78.5991 10.3243 78.6955 10.5225 78.8885 10.7207C79.0814 10.9189 79.2743 11.1171 79.5637 11.2162C79.8531 11.3153 80.1425 11.4144 80.4319 11.4144C80.7213 11.4144 81.0107 11.3153 81.3001 11.2162C81.5895 11.1171 81.7825 10.9189 81.9754 10.7207C82.1683 10.5225 82.2648 10.3243 82.3613 10.027C82.4577 9.72973 82.5542 9.43243 82.5542 9.13514C82.5542 8.83784 82.4577 8.54054 82.3613 8.24324C82.2648 7.94595 82.0719 7.74775 81.9754 7.54955C81.7825 7.35135 81.5895 7.15315 81.3001 7.05405C81.1072 6.85586 80.8178 6.85586 80.5284 6.85586Z" fill="#E41522"/>
</svg>
