<svg width="90" height="29" viewBox="0 0 90 29" fill="none" xmlns="http://www.w3.org/2000/svg">
<path d="M74.4271 4.2998H70.1523C68.8599 4.2998 67.8657 4.6998 67.2692 5.9998L59.1172 24.6998H64.8833C64.8833 24.6998 65.8774 22.1998 66.0763 21.5998C66.6727 21.5998 72.3394 21.5998 73.1347 21.5998C73.3336 22.2998 73.8306 24.5998 73.8306 24.5998H79.0002L74.4271 4.2998ZM67.6669 17.3998C68.164 16.1998 69.854 11.6998 69.854 11.6998C69.854 11.7998 70.3511 10.4998 70.5499 9.7998L70.9476 11.5998C70.9476 11.5998 72.0412 16.4998 72.24 17.4998H67.6669V17.3998Z" fill="#3362AB"/>
<path d="M59.514 18C59.514 22.2 55.7363 25 49.8708 25C47.3854 25 44.9994 24.5 43.707 23.9L44.5024 19.3L45.1983 19.6C46.9877 20.4 48.1807 20.7 50.3678 20.7C51.9585 20.7 53.6486 20.1 53.6486 18.7C53.6486 17.8 52.9526 17.2 50.7655 16.2C48.6778 15.2 45.8942 13.6 45.8942 10.7C45.8942 6.7 49.7714 4 55.2392 4C57.3269 4 59.1164 4.4 60.21 4.9L59.4146 9.3L59.017 8.9C58.0228 8.5 56.7304 8.1 54.8415 8.1C52.7538 8.2 51.7597 9.1 51.7597 9.9C51.7597 10.8 52.9526 11.5 54.8415 12.4C58.0228 13.9 59.514 15.6 59.514 18Z" fill="#3362AB"/>
<path d="M11 4.49961L11.0994 4.09961H19.6491C20.8421 4.09961 21.7368 4.49961 22.0351 5.79961L23.924 14.7996C22.0351 9.99961 17.6608 6.09961 11 4.49961Z" fill="#F9B50B"/>
<path d="M35.9541 4.3002L27.305 24.6002H21.4395L16.4688 7.6002C20.0477 9.9002 23.0302 13.5002 24.1237 16.0002L24.7202 18.1002L30.0886 4.2002H35.9541V4.3002Z" fill="#3362AB"/>
<path d="M38.2413 4.2002H43.7091L40.2296 24.6002H34.7617L38.2413 4.2002Z" fill="#3362AB"/>
</svg>
