<svg width="90" height="29" viewBox="0 0 90 29" fill="none" xmlns="http://www.w3.org/2000/svg">
<g clip-path="url(#clip0_3668_2950)">
<path d="M42.3281 17.1272L43.6582 8.56348H45.7483L44.4182 17.1272H42.3281Z" fill="#074784"/>
<path d="M36.1516 8.56348H39.4768C41.5669 8.56348 42.137 9.82857 41.852 11.2883C41.6619 12.5534 40.8069 13.3319 39.6668 13.6238L41.757 17.1272H39.0018L37.3867 13.7211L36.9117 17.1272H34.7266L36.1516 8.56348ZM38.0517 10.2178L37.6717 12.3587H38.3368C38.9068 12.3587 39.4768 11.8722 39.5718 11.2883C39.6668 10.7044 39.2868 10.2178 38.6218 10.2178H38.0517Z" fill="#074784"/>
<path d="M52.1094 17.1272L53.4395 8.56348H55.6246L54.2945 17.1272H52.1094Z" fill="#074784"/>
<path d="M59.1442 10.4125L58.8592 11.8722H61.3294L61.0443 13.7211H58.5742L58.3842 15.2782H60.9493L60.6643 17.1272H55.9141L57.2441 8.56348H61.9944L61.7094 10.4125H59.1442Z" fill="#074784"/>
<path d="M31.9724 10.4125L31.7824 11.8722H34.2525L33.9675 13.7211H31.4973L31.2123 15.2782H33.7775L33.4925 17.1272H28.7422L30.0723 8.56348H34.8225L34.5375 10.4125H31.9724Z" fill="#074784"/>
<path d="M49.2614 10.4125L49.0714 11.8722H51.4466L51.1615 13.7211H48.7864L48.2164 17.1272H46.0312L47.3613 8.56348H52.2066L51.9216 10.4125H49.2614Z" fill="#074784"/>
<path d="M66.0787 8.56348H63.2285L61.8984 17.1272H64.7486C67.4087 17.1272 69.5939 15.2782 69.9739 12.8453C70.1639 11.191 69.4039 8.56348 66.0787 8.56348ZM67.6938 12.748C67.4087 14.305 66.3637 15.2782 64.9386 15.2782C64.7486 15.2782 64.5586 15.2782 64.3686 15.2782L65.1286 10.4125C65.3186 10.4125 65.4136 10.4125 65.6036 10.4125C67.2187 10.4125 67.8838 11.5802 67.6938 12.748Z" fill="#074784"/>
<path d="M20 7.39591H23.9902L24.4652 13.624C27.1254 8.95294 29.7855 4.47647 32.5407 0H33.8708C31.0206 5.64424 28.1705 11.3858 25.4153 17.1274H22.4701L21.7101 10.218C21.5201 8.56368 21.2351 7.78516 20 7.68785V7.39591Z" fill="#074784"/>
<path d="M25.4147 9.24483L28.5499 3.79522V3.60059H21.5195V3.79522L24.9397 5.35225L25.2247 9.24483H25.4147Z" fill="#F09C11"/>
<path d="M37.8616 21.8957C37.2916 21.8957 36.8165 22.1877 36.4365 22.5769L36.9115 19.1709H35.4865L34.4414 26.6641H35.8665L35.9615 26.0802C36.2465 26.4695 36.6265 26.7614 37.1966 26.7614C38.3366 26.7614 39.3817 25.691 39.5717 24.3286C39.7617 22.9662 39.0017 21.8957 37.8616 21.8957ZM38.0516 24.3286C37.9566 24.9125 37.4816 25.399 37.0065 25.399C36.5315 25.399 36.1515 24.9125 36.2465 24.3286C36.3415 23.7447 36.8165 23.2581 37.2916 23.2581C37.7666 23.2581 38.1466 23.7447 38.0516 24.3286Z" fill="#074784"/>
<path d="M43.5604 21.9941H45.1755L40.9002 29.0008H39.2852L41.0903 26.0814L39.6652 21.9941H41.2803L42.0403 24.427L43.5604 21.9941Z" fill="#074784"/>
<path d="M54.7725 26.6641H52.7773L55.0575 19.1709H57.0526L54.7725 26.6641Z" fill="#074784"/>
<path d="M51.9227 19.1709L49.2625 24.0366L49.0725 19.1709H45.6523V19.4628C46.7924 19.4628 46.9824 19.6575 47.1724 20.5333L47.8375 26.6641H49.9276L54.1078 19.1709H51.9227Z" fill="#074784"/>
<path d="M64.9375 25.5937L64.4625 26.6641H62.2773L66.2676 19.1709H68.9277L69.5927 26.6641H68.0727H67.4076L67.3126 25.5937H64.9375ZM65.6025 24.1339H67.3126L67.1226 20.6306L65.6025 24.1339Z" fill="#074784"/>
<path d="M59.1417 26.859C57.7167 26.859 56.7666 26.3725 56.1016 25.9832L57.0516 24.5235C57.6216 24.9128 58.0967 25.302 59.2367 25.302C59.6168 25.302 59.9018 25.2047 60.0918 24.9128C60.3768 24.4262 59.9968 24.1342 59.2367 23.745L58.8567 23.3557C57.7167 22.5772 57.1466 21.7987 57.7167 20.4363C58.0967 19.5604 58.9517 18.9766 60.4718 18.9766C61.5169 18.9766 62.4669 19.4631 63.0369 19.8524L61.8969 21.1175C61.3268 20.6309 60.8518 20.4363 60.3768 20.4363C59.9968 20.4363 59.6168 20.6309 59.5217 20.8255C59.3317 21.2148 59.6168 21.5067 60.1868 21.896L60.6618 22.1879C62.0869 23.0638 62.3719 24.0369 62.0869 24.9128C61.6119 26.5671 60.3768 26.859 59.1417 26.859Z" fill="#074784"/>
</g>
<defs>
<clipPath id="clip0_3668_2950">
<rect width="90" height="29" fill="white"/>
</clipPath>
</defs>
</svg>
