<svg width="200" height="47" viewBox="0 0 200 47" fill="none" xmlns="http://www.w3.org/2000/svg">
<path fill-rule="evenodd" clip-rule="evenodd" d="M124.889 21.3801C124.169 25.1689 121.773 26.8582 119.873 26.8582C117.97 26.8582 116.219 25.1689 116.939 21.3801C117.658 17.5913 120.055 15.902 121.954 15.902C123.857 15.9057 125.608 17.5913 124.889 21.3801ZM127.927 5.39678L126.684 11.9431L126.232 14.8707H126.161C125.505 13.4254 124.113 12.1834 121.52 12.1834C117.892 12.1834 113.266 14.8707 112.031 21.3801C110.959 27.0282 113.255 30.5768 117.818 30.5768C121.238 30.5768 123.223 28.6842 124.303 27.202H124.373L123.783 30.3033H127.897L132.631 5.40047H127.927V5.39678ZM96.1307 12.4606L95.4778 15.9057H104.533L104.515 16.0092L102.645 17.6615L92.9663 26.7547L92.2911 30.3033H107.397L108.05 26.8582H98.4753L98.4938 26.7547L100.412 25.0322L109.786 15.9057L110.439 12.4606H96.1307ZM77.9827 21.3801C78.7691 17.2475 81.3363 15.5582 83.41 15.5582C85.4838 15.5582 87.4091 17.2475 86.6264 21.3801C85.8399 25.5127 83.2728 27.202 81.199 27.202C79.1215 27.202 77.1962 25.5164 77.9827 21.3801ZM73.0746 21.3801C71.9432 27.3387 75.2337 30.5768 80.5572 30.5768C85.8807 30.5768 90.4029 27.3387 91.5344 21.3801C92.6658 15.4215 89.3753 12.1834 84.0518 12.1834C78.7283 12.1834 74.2061 15.4215 73.0746 21.3801ZM55.0638 12.4606L58.3803 30.3033H63.9116L73.9019 12.4606H69.0978L63.3736 23.4834L62.2199 26.1004H62.116L61.886 23.4834L60.2129 12.4606H55.0638ZM52.5857 6.94927C50.2523 6.12127 48.2193 5.91427 45.6967 5.91427C37.6094 5.91427 31.4884 10.2871 29.9748 18.2455C28.4835 26.0967 32.746 30.5768 40.388 30.5768C44.0867 30.5768 47.9077 29.5788 49.1059 29.2683L51.5358 16.4897H41.6827L40.9631 20.2786H45.9044L44.8101 26.0302C43.6267 26.4442 42.6807 26.5107 41.4676 26.5107C36.6968 26.5107 34.1816 23.3762 35.1573 18.2455C36.1515 13.0114 39.9355 9.83987 44.8435 9.83987C46.8133 9.83987 49.2172 10.1134 51.4876 11.2519L52.5857 6.94927Z" fill="#B9956F"/>
<path fill-rule="evenodd" clip-rule="evenodd" d="M169.087 22.4484L169.001 22.8956C168.267 26.7547 165.748 27.6492 163.811 27.6492C161.738 27.6492 161.14 26.6142 161.382 25.3427C161.923 22.4853 165.7 22.4484 168.293 22.4484H169.087ZM160.283 17.2845C162.925 15.9427 164.769 15.6987 166.323 15.6987C168.467 15.6987 170.159 16.8002 169.784 18.763L169.639 19.5208H169.224C168.36 19.5208 167.469 19.4875 166.605 19.4875C159 19.4875 157.067 22.9326 156.603 25.3759C156.073 28.1667 157.401 30.8171 161.931 30.8171C165.837 30.8171 167.555 28.6805 168.081 27.9228H168.152L167.655 30.5398H172.251L174.392 19.2768C174.904 16.5895 175.037 12.4237 167.777 12.4237C165.358 12.4237 163.292 12.7342 160.988 13.5954L160.283 17.2845ZM143.07 5.64074L138.337 30.5435H143.037L144.758 21.4836H144.932L149.087 30.5435H154.826L149.488 20.7961L157.594 12.7009H152.2L145.196 20.1085H145.022L147.77 5.64074H143.07Z" fill="#B9956F"/>
<path fill-rule="evenodd" clip-rule="evenodd" d="M134.007 12.7009L130.65 30.3624H135.35L138.708 12.7009H134.007ZM135.384 5.45961L134.668 9.22627H139.368L140.084 5.45961H135.384Z" fill="#B9956F"/>
<path d="M190.559 21.6647L192.299 31.1128L191.991 31.6303C191.531 32.4065 190.967 32.632 190.169 32.632C189.824 32.632 189.546 32.547 189.286 32.4435L188.782 34.1882C189.171 34.325 189.668 34.447 190.102 34.447C192.618 34.447 193.523 33.0497 194.298 31.7005L200 21.6647H197.607L195.051 26.5366L194.157 28.3146H194.072L193.894 26.6031L193.152 21.6647H190.559ZM182.653 26.1374C183.013 24.2374 184.215 23.391 185.168 23.391C186.122 23.391 187.001 24.2374 186.641 26.1374C186.281 28.0374 185.079 28.8838 184.126 28.8838C183.173 28.8838 182.29 28.0374 182.653 26.1374ZM181.908 17.6578L179.448 30.6101H181.511L181.807 29.0539H181.841C182.249 30.4696 183.581 30.7468 184.449 30.7468C186.389 30.7468 188.518 29.2091 189.104 26.1337C189.613 23.4575 188.593 21.5206 186.1 21.5206C184.835 21.5206 183.881 22.075 183.262 22.8661H183.228L183.558 21.3986L184.271 17.6504H181.908V17.6578Z" fill="#B9956F"/>
<path d="M167.421 40.4278C167.488 40.1616 167.473 39.9361 167.38 39.7439C167.287 39.5554 167.154 39.4186 166.987 39.3447C166.761 39.2449 166.531 39.1858 166.293 39.1747C166.056 39.1636 165.74 39.1599 165.34 39.1599H164.924L164.212 41.9692H164.906C165.318 41.9692 165.663 41.9433 165.941 41.8952C166.219 41.8472 166.468 41.7437 166.69 41.5921C166.879 41.4591 167.031 41.2964 167.146 41.1116C167.261 40.9231 167.354 40.6939 167.421 40.4278ZM169.97 40.3686C169.862 40.79 169.684 41.2003 169.435 41.6032C169.183 42.0061 168.886 42.3425 168.545 42.616C168.074 42.9857 167.584 43.2666 167.072 43.4551C166.564 43.6436 165.963 43.7398 165.273 43.7398H163.759L162.98 46.8078H160.539L162.928 37.4004H166.939C167.54 37.4004 168.033 37.4521 168.419 37.5556C168.805 37.6591 169.131 37.8107 169.395 38.0177C169.714 38.2654 169.921 38.5832 170.025 38.9714C170.125 39.3595 170.107 39.8252 169.97 40.3686ZM155.112 44.4901C155.42 44.2018 155.683 43.8654 155.895 43.4773C156.11 43.0855 156.281 42.6308 156.414 42.1022C156.559 41.5404 156.614 41.0598 156.585 40.6606C156.555 40.2651 156.462 39.9435 156.314 39.6996C156.162 39.4482 155.958 39.2634 155.706 39.1488C155.453 39.0342 155.175 38.9788 154.871 38.9788C154.563 38.9788 154.259 39.0342 153.958 39.1414C153.654 39.2523 153.361 39.4334 153.068 39.6848C152.797 39.9214 152.541 40.2466 152.304 40.6606C152.066 41.0746 151.877 41.5552 151.74 42.1022C151.599 42.6641 151.54 43.1409 151.569 43.5328C151.599 43.9283 151.688 44.2499 151.836 44.4975C151.985 44.7452 152.185 44.93 152.437 45.0483C152.69 45.1666 152.975 45.2257 153.287 45.2257C153.598 45.2257 153.914 45.1666 154.225 45.0446C154.541 44.93 154.834 44.7415 155.112 44.4901ZM158.948 42.1059C158.566 43.6067 157.835 44.7969 156.744 45.6767C155.657 46.5601 154.352 47 152.831 47C151.31 47 150.234 46.5564 149.592 45.6767C148.954 44.7932 148.824 43.603 149.206 42.1059C149.588 40.5978 150.323 39.4002 151.41 38.5241C152.497 37.6444 153.799 37.2045 155.32 37.2045C156.833 37.2045 157.913 37.6444 158.558 38.5241C159.2 39.4002 159.33 40.5978 158.948 42.1059ZM145.218 46.8078H142.777L143.831 42.6678H140.258L139.205 46.8078H136.764L139.153 37.4004H141.594L140.718 40.8418H144.291L145.166 37.4004H147.607L145.218 46.8078ZM134.901 43.8506C134.668 44.7748 134.081 45.5288 133.147 46.1055C132.212 46.6858 131.069 46.9741 129.719 46.9741C128.936 46.9741 128.272 46.9039 127.727 46.7708C127.178 46.6341 126.681 46.4603 126.228 46.2496L126.799 43.9985H127.066C127.467 44.3977 127.953 44.7045 128.521 44.9189C129.088 45.1333 129.659 45.2405 130.234 45.2405C130.383 45.2405 130.579 45.2294 130.828 45.2035C131.073 45.1814 131.281 45.137 131.448 45.0779C131.652 45.0002 131.83 44.9041 131.978 44.7932C132.126 44.6786 132.23 44.5086 132.286 44.2868C132.338 44.0798 132.297 43.9024 132.16 43.7508C132.023 43.603 131.793 43.4884 131.477 43.4071C131.143 43.3221 130.791 43.2444 130.413 43.1705C130.038 43.0966 129.689 43.0005 129.37 42.8896C128.639 42.6345 128.161 42.2834 127.923 41.8435C127.686 41.4036 127.649 40.8565 127.816 40.206C128.038 39.3299 128.613 38.6165 129.541 38.062C130.468 37.5076 131.551 37.2304 132.79 37.2304C133.41 37.2304 134.011 37.2895 134.586 37.4078C135.165 37.5298 135.651 37.6813 136.048 37.8624L135.499 40.0248H135.239C134.938 39.7217 134.534 39.4704 134.033 39.2671C133.532 39.0638 132.995 38.964 132.423 38.964C132.219 38.964 132.015 38.9751 131.807 39.0046C131.6 39.0342 131.392 39.0823 131.188 39.1562C131.006 39.2227 130.843 39.3151 130.691 39.4445C130.539 39.5702 130.442 39.718 130.401 39.8807C130.338 40.1284 130.387 40.3169 130.542 40.4536C130.698 40.5867 131.025 40.705 131.525 40.8159C131.852 40.8861 132.167 40.96 132.471 41.0266C132.772 41.0931 133.091 41.1855 133.429 41.3038C134.093 41.5404 134.541 41.862 134.783 42.2649C135.027 42.6752 135.068 43.2038 134.901 43.8506ZM112.821 46.8078H109.842L108.15 43.3516H107.049L106.169 46.8078H103.728L106.117 37.4004H110.198C110.758 37.4004 111.226 37.4337 111.612 37.4965C111.997 37.5593 112.339 37.6961 112.635 37.9068C112.936 38.1175 113.151 38.391 113.273 38.7237C113.4 39.0564 113.396 39.4778 113.266 39.9842C113.088 40.6791 112.788 41.2447 112.353 41.6808C111.919 42.117 111.367 42.483 110.691 42.775L112.821 46.8078ZM110.662 40.2725C110.721 40.0396 110.725 39.84 110.673 39.6737C110.617 39.5037 110.487 39.3743 110.276 39.2782C110.131 39.2116 109.953 39.171 109.742 39.1562C109.53 39.1414 109.278 39.134 108.989 39.134H108.121L107.483 41.6439H108.221C108.603 41.6439 108.929 41.6254 109.196 41.5884C109.467 41.5515 109.705 41.4665 109.912 41.3334C110.113 41.204 110.269 41.0599 110.387 40.9046C110.502 40.7457 110.595 40.535 110.662 40.2725ZM100.757 46.8078H93.9234L96.3125 37.4004H103.146L102.682 39.2264H98.2935L97.8817 40.8455H101.959L101.495 42.6715H97.418L96.8282 44.9891H101.217L100.757 46.8078ZM93.7565 37.4004L88.8225 46.8078H86.1441L85.992 40.6791L82.7831 46.8078H80.0898L79.9377 37.4004H82.4789L82.2822 43.8765L85.6692 37.4004H88.0991L88.1288 43.8765L91.2969 37.4004H93.7565ZM73.6868 44.4901C73.9947 44.2018 74.258 43.8654 74.4695 43.4773C74.6847 43.0855 74.8553 42.6308 74.9889 42.1022C75.1336 41.5404 75.1892 41.0598 75.1595 40.6606C75.1298 40.2651 75.0371 39.9435 74.8887 39.6996C74.7366 39.4482 74.5326 39.2634 74.2803 39.1488C74.028 39.0342 73.7498 38.9788 73.4456 38.9788C73.1377 38.9788 72.8335 39.0342 72.533 39.1414C72.2288 39.2523 71.9357 39.4334 71.6427 39.6848C71.3719 39.9214 71.1159 40.2466 70.8785 40.6606C70.641 41.0746 70.4518 41.5552 70.3146 42.1022C70.1736 42.6641 70.1143 43.1409 70.1439 43.5328C70.1736 43.9283 70.2626 44.2499 70.411 44.4975C70.5594 44.7452 70.7598 44.93 71.012 45.0483C71.2643 45.1666 71.5499 45.2257 71.8653 45.2257C72.1769 45.2257 72.4922 45.1666 72.8038 45.0446C73.1155 44.93 73.4085 44.7415 73.6868 44.4901ZM77.5226 42.1059C77.1405 43.6067 76.4097 44.7969 75.319 45.6767C74.2321 46.5601 72.9262 47 71.4053 47C69.8843 47 68.8084 46.5564 68.1666 45.6767C67.5286 44.7932 67.3987 43.603 67.7808 42.1059C68.1629 40.5978 68.8975 39.4002 69.9844 38.5241C71.0714 37.6444 72.3735 37.2045 73.8945 37.2045C75.4081 37.2045 76.4876 37.6444 77.1331 38.5241C77.7749 39.4002 77.9047 40.5978 77.5226 42.1059ZM65.2656 46.8078H58.4582L60.8473 37.4004H63.2883L61.363 44.9854H65.7256L65.2656 46.8078ZM56.4624 39.2227H52.1517L51.7065 40.9711H55.7056L55.2419 42.7972H51.2428L50.2226 46.8078H47.7816L50.1707 37.4004H56.9261L56.4624 39.2227Z" fill="#B9956F"/>
<path fill-rule="evenodd" clip-rule="evenodd" d="M175.957 27.8304C175.022 27.8304 174.265 28.5844 174.265 29.5159C174.265 30.4474 175.022 31.2015 175.957 31.2015C176.892 31.2015 177.649 30.4474 177.649 29.5159C177.649 28.5881 176.892 27.8304 175.957 27.8304Z" fill="#B9956F"/>
<path fill-rule="evenodd" clip-rule="evenodd" d="M9.63422 17.7059C10.3205 18.3269 11.1441 19.0144 11.8341 19.6354C8.13548 21.7867 7.03368 26.4775 5.46817 31.0056C5.13058 31.061 4.73364 31.0204 4.39605 31.0758C5.85769 26.5218 7.52708 22.0418 9.63422 17.7059Z" fill="#B9956F"/>
<path fill-rule="evenodd" clip-rule="evenodd" d="M0 13.8912C6.24351 18.264 6.16931 24.097 6.15818 24.0748C5.19736 21.6795 1.55809 16.0351 0 13.8912Z" fill="#B9956F"/>
<path fill-rule="evenodd" clip-rule="evenodd" d="M0.949696 15.4621C2.37424 20.9439 6.16931 24.145 6.15818 24.1302C5.17881 22.319 1.76955 17.144 0.949696 15.4621Z" fill="#B9956F"/>
<path fill-rule="evenodd" clip-rule="evenodd" d="M18.3966 26.4072C11.0476 24.3483 6.55884 28.0928 6.58481 28.0854C9.0555 27.3166 15.7479 26.5588 18.3966 26.4072Z" fill="#B9956F"/>
<path fill-rule="evenodd" clip-rule="evenodd" d="M17.1242 26.629C11.9602 28.9947 6.61448 28.1446 6.62932 28.1409C8.71791 27.749 14.0414 26.8138 17.1242 26.629Z" fill="#B9956F"/>
<path fill-rule="evenodd" clip-rule="evenodd" d="M9.01098 17.0701C8.38403 12.0651 7.40466 9.65136 4.63719 5.44852L6.96691 5.33763L6.82594 3.16783L9.10743 3.3009L9.1705 1.30114L10.8807 1.62273L11.6672 0C12.3794 1.09044 13.0917 2.18089 13.804 3.26764L14.8538 4.90885L13.4478 4.63901L13.0212 6.79772L11.1478 5.24153L11.3555 9.13386C11.6783 13.1371 10.8992 14.3162 9.01098 17.0701Z" fill="#B9956F"/>
<path fill-rule="evenodd" clip-rule="evenodd" d="M10.4689 16.9148L11.823 18.0053C13.0806 14.575 13.893 13.5807 17.5508 12.712C17.7103 10.6457 18.4004 9.17082 19.3723 7.36697L17.1353 0.569249L16.59 3.70751L15.7813 3.21589L15.4697 5.75902L14.4792 5.60377L14.0117 7.78466L12.7356 7.50004C12.6428 10.605 12.0307 14.1906 10.4689 16.9148Z" fill="#B9956F"/>
<path fill-rule="evenodd" clip-rule="evenodd" d="M12.9693 20.2379C13.2772 13.004 18.2112 14.0501 23.8797 14.867L23.2861 16.2643L25.4155 16.2421L24.5548 17.1773L26.4283 17.8759L20.6225 19.1475L14.2158 20.0309L12.9693 20.2379Z" fill="#B9956F"/>
<path fill-rule="evenodd" clip-rule="evenodd" d="M18.6192 12.7637C18.686 10.2132 19.4576 9.27432 20.6744 7.39284L20.4667 6.25065L21.1456 6.1989L22.2362 7.24868L22.2028 8.60897L22.9411 9.52198L21.3459 11.0153L20.5186 12.8192L18.6192 12.7637Z" fill="#B9956F"/>
<path fill-rule="evenodd" clip-rule="evenodd" d="M19.2944 2.56901L24.9184 1.11632L24.3768 3.21219L26.4283 4.12521L25.5157 6.21368L26.8771 7.27825L26.0091 8.71986L27.9047 9.96555L26.5989 11.6326L27.4818 13.4106L26.1389 14.0649L26.5878 15.6433L21.3273 13.2591L21.6909 11.4922L24.2432 9.83248L23.3825 8.37979L23.2527 6.82359L22.3698 5.1639L19.9214 5.6814L19.2944 2.56901Z" fill="#B9956F"/>
</svg>
