<svg width="28" height="28" viewBox="0 0 28 28" fill="none" xmlns="http://www.w3.org/2000/svg">
<path d="M13.3306 8.03601L14.0073 9.45261L14.6841 8.03601C15.3911 6.5559 16.8899 5.75 18.7341 5.75C21.2059 5.75 23.2429 7.87253 23.2499 10.514C23.253 11.6769 22.7204 12.9976 21.8174 14.3761C20.9227 15.7419 19.7151 17.0878 18.486 18.2842C17.2599 19.4776 16.0305 20.5049 15.106 21.2347C14.6529 21.5924 14.2744 21.8775 14.0073 22.0745C13.7403 21.8775 13.3617 21.5922 12.9085 21.2343C11.9839 20.5041 10.754 19.4759 9.52707 18.2807C8.2971 17.0825 7.08808 15.7337 6.19125 14.3637C5.28622 12.9811 4.75011 11.6539 4.75011 10.4819C4.75011 7.85371 6.80632 5.75 9.28919 5.75C11.132 5.75 12.623 6.5548 13.3306 8.03601Z" stroke="#03453B" stroke-width="1.5"/>
</svg>
