<svg width="34" height="34" viewBox="0 0 34 34" fill="none" xmlns="http://www.w3.org/2000/svg">
<path d="M16.3345 9.09306L17.0102 10.4963L17.686 9.09306C18.7351 6.91445 20.9545 5.75 23.6278 5.75C27.2743 5.75 30.2397 8.84913 30.2499 12.6575C30.2544 14.3543 29.4742 16.2455 28.1968 18.1799C26.9279 20.1014 25.2208 21.9875 23.4917 23.6572C21.7658 25.3239 20.0362 26.7575 18.7366 27.7753C18.0874 28.2837 17.5469 28.6873 17.1696 28.963C17.1127 29.0046 17.0595 29.0433 17.0103 29.079C16.961 29.0433 16.9078 29.0046 16.8509 28.963C16.4736 28.6872 15.9331 28.2835 15.2837 27.7747C13.9838 26.7564 12.2536 25.3215 10.5264 23.6522C8.79612 21.98 7.08701 20.0899 5.81523 18.1625C4.53506 16.2224 3.75016 14.3225 3.75016 12.6138C3.75016 8.81858 6.74708 5.75 10.4049 5.75C13.0767 5.75 15.2849 6.91337 16.3345 9.09306Z" stroke="#E12317" stroke-width="1.5"/>
</svg>
