<svg width="32" height="32" viewBox="0 0 32 32" fill="none" xmlns="http://www.w3.org/2000/svg">
<g clip-path="url(#clip0_3655_2901)">
<path d="M20.1675 7.93945H11.7499C9.64351 7.93945 7.92969 9.65327 7.92969 11.7597V20.2545C7.92969 22.3609 9.64351 24.0747 11.7499 24.0747H20.1675C22.2739 24.0747 23.9878 22.3609 23.9878 20.2545V11.7597C23.9878 9.65327 22.2739 7.93945 20.1675 7.93945ZM15.9748 21.0936C13.1195 21.0936 10.7967 18.7954 10.7967 15.9706C10.7967 13.1458 13.1198 10.8476 15.9748 10.8476C18.8298 10.8476 21.1529 13.1458 21.1529 15.9706C21.1529 18.7954 18.8301 21.0936 15.9748 21.0936ZM21.2451 11.8564C20.5721 11.8564 20.0267 11.311 20.0267 10.638C20.0267 9.96509 20.5721 9.41966 21.2451 9.41966C21.918 9.41966 22.4634 9.96509 22.4634 10.638C22.4634 11.311 21.918 11.8564 21.2451 11.8564Z" fill="#EBEBEB"/>
<path d="M16 0C7.16353 0 0 7.16353 0 16C0 24.8365 7.16353 32 16 32C24.8365 32 32 24.8365 32 16C32 7.16353 24.8365 0 16 0ZM25.879 20.2547C25.879 23.4033 23.3173 25.9646 20.169 25.9646H11.7515C8.60285 25.9646 6.04153 23.403 6.04153 20.2547V11.7599C6.04153 8.61129 8.60318 6.04997 11.7515 6.04997H20.169C23.3176 6.04997 25.879 8.61162 25.879 11.7599V20.2547Z" fill="#EBEBEB"/>
<path d="M15.9756 12.7334C14.1602 12.7334 12.6836 14.1854 12.6836 15.9703C12.6836 17.7551 14.1602 19.2071 15.9756 19.2071C17.791 19.2071 19.2676 17.7551 19.2676 15.9703C19.2676 14.1854 17.791 12.7334 15.9756 12.7334Z" fill="#EBEBEB"/>
</g>
<defs>
<clipPath id="clip0_3655_2901">
<rect width="32" height="32" fill="white"/>
</clipPath>
</defs>
</svg>
