<svg width="27" height="27" viewBox="0 0 27 27" fill="none" xmlns="http://www.w3.org/2000/svg">
<g clip-path="url(#clip0_3632_443)">
<path d="M17.0171 6.69922H9.91474C8.13744 6.69922 6.69141 8.14526 6.69141 9.92255V17.09C6.69141 18.8673 8.13744 20.3134 9.91474 20.3134H17.0171C18.7944 20.3134 20.2404 18.8673 20.2404 17.09V9.92255C20.2404 8.14526 18.7944 6.69922 17.0171 6.69922ZM13.4795 17.798C11.0703 17.798 9.11041 15.8589 9.11041 13.4755C9.11041 11.0921 11.0706 9.15299 13.4795 9.15299C15.8883 9.15299 17.8485 11.0921 17.8485 13.4755C17.8485 15.8589 15.8886 17.798 13.4795 17.798ZM17.9263 10.0041C17.3585 10.0041 16.8983 9.54393 16.8983 8.97614C16.8983 8.40835 17.3585 7.94814 17.9263 7.94814C18.4941 7.94814 18.9543 8.40835 18.9543 8.97614C18.9543 9.54393 18.4941 10.0041 17.9263 10.0041Z" fill="#00554E"/>
<path d="M13.5 0C6.04423 0 0 6.04423 0 13.5C0 20.9558 6.04423 27 13.5 27C20.9558 27 27 20.9558 27 13.5C27 6.04423 20.9558 0 13.5 0ZM21.8354 17.0899C21.8354 19.7465 19.674 21.9077 17.0176 21.9077H9.91529C7.25866 21.9077 5.09754 19.7463 5.09754 17.0899V9.92241C5.09754 7.26578 7.25893 5.10466 9.91529 5.10466H17.0176C19.6743 5.10466 21.8354 7.26605 21.8354 9.92241V17.0899Z" fill="#00554E"/>
<path d="M13.4808 10.7441C11.949 10.7441 10.7031 11.9692 10.7031 13.4752C10.7031 14.9812 11.949 16.2063 13.4808 16.2063C15.0125 16.2063 16.2584 14.9812 16.2584 13.4752C16.2584 11.9692 15.0125 10.7441 13.4808 10.7441Z" fill="#00554E"/>
</g>
<defs>
<clipPath id="clip0_3632_443">
<rect width="27" height="27" fill="white"/>
</clipPath>
</defs>
</svg>
