<svg width="32" height="32" viewBox="0 0 32 32" fill="none" xmlns="http://www.w3.org/2000/svg">
<path d="M23.2008 14.4C23.2008 20 16.0008 24.8 16.0008 24.8C16.0008 24.8 8.80078 20 8.80078 14.4C8.80078 12.4904 9.55935 10.659 10.9096 9.30878C12.2599 7.95852 14.0912 7.19995 16.0008 7.19995C17.9103 7.19995 19.7417 7.95852 21.0919 9.30878C22.4422 10.659 23.2008 12.4904 23.2008 14.4Z" stroke="#333333" stroke-width="1.5" stroke-linecap="round" stroke-linejoin="round"/>
<path d="M16.0008 16.8C17.3263 16.8 18.4008 15.7254 18.4008 14.4C18.4008 13.0745 17.3263 12 16.0008 12C14.6753 12 13.6008 13.0745 13.6008 14.4C13.6008 15.7254 14.6753 16.8 16.0008 16.8Z" stroke="#333333" stroke-width="1.5" stroke-linecap="round" stroke-linejoin="round"/>
</svg>
