<svg width="28" height="28" viewBox="0 0 28 28" fill="none" xmlns="http://www.w3.org/2000/svg">
<path d="M22 24V21.8889C22 20.7691 21.5522 19.6951 20.7552 18.9033C19.9582 18.1115 18.8772 17.6667 17.75 17.6667H9.25C8.12283 17.6667 7.04183 18.1115 6.2448 18.9033C5.44777 19.6951 5 20.7691 5 21.8889V24M17.75 9.22222C17.75 11.5541 15.8472 13.4444 13.5 13.4444C11.1528 13.4444 9.25 11.5541 9.25 9.22222C9.25 6.89035 11.1528 5 13.5 5C15.8472 5 17.75 6.89035 17.75 9.22222Z" stroke="#EBEBEB" stroke-width="1.5" stroke-linecap="round" stroke-linejoin="round"/>
<circle cx="18.5" cy="5.5" r="4.5" fill="#AE8646"/>
</svg>
