<svg width="32" height="32" viewBox="0 0 32 32" fill="none" xmlns="http://www.w3.org/2000/svg">
<path d="M24.457 18.2218C27.928 17.0533 28 12.7353 28 12.5552C28 12.4602 27.9703 12.3677 27.9153 12.2917C27.8137 12.1423 25.3121 8.69406 21.841 9.8669C20.8837 10.202 19.9878 10.7025 19.1912 11.3472C19.539 10.3617 19.7223 9.32184 19.733 8.27236C19.733 4.48586 15.8005 3.0802 15.6355 3.0231C15.5476 2.9923 15.4524 2.9923 15.3645 3.0231C15.1995 3.0802 11.267 4.48586 11.267 8.29432C11.2788 9.3437 11.462 10.3834 11.8088 11.3692C11.011 10.7161 10.1121 10.2081 9.15053 9.8669C5.68371 8.69406 3.18625 12.1423 3.08466 12.2917C3.02971 12.3677 3 12.4602 3 12.5552C3 12.7353 3.07196 17.0533 6.54301 18.2218C7.50745 18.5369 8.51683 18.6781 9.52726 18.6391C8.68801 19.2228 7.95079 19.9507 7.34727 20.7915C5.20115 23.8664 7.58855 27.3805 7.69438 27.5387C7.74539 27.6178 7.82195 27.6754 7.91026 27.7012C8.58875 27.9028 9.29138 28.0034 9.99712 27.9999C13.0025 27.9999 14.6534 26.133 15.5 23.168C16.3678 26.1506 18.0102 27.9999 21.0029 27.9999C21.7074 28.0015 22.4086 27.8995 23.0855 27.6968C23.1738 27.671 23.2504 27.6134 23.3014 27.5343C23.4072 27.3849 25.7946 23.8532 23.6485 20.7871C23.0441 19.9486 22.3087 19.2211 21.4727 18.6347C22.4829 18.6742 23.4921 18.5345 24.457 18.2218ZM15.5 3.91481C16.1434 4.17837 18.8864 5.47422 18.8864 8.27675C18.8864 10.8113 17.5064 13.4426 15.9741 15.4017C15.8979 15.3709 15.9233 15.797 15.9233 10.4731C15.9233 10.2305 15.7338 10.0338 15.5 10.0338C15.2662 10.0338 15.0767 10.2305 15.0767 10.4731V15.0503C14.563 14.2541 13.9868 13.5033 13.3539 12.8056C12.5886 11.4245 12.1627 9.86911 12.1136 8.27675C12.1136 5.483 14.8566 4.18277 15.5 3.91481ZM6.80545 17.3872C4.2445 16.5086 3.89739 13.4118 3.84236 12.6958C4.26566 12.1423 6.31443 9.83616 8.88385 10.7015C11.212 11.4878 13.193 13.6578 14.5137 15.7839C14.4714 15.841 14.8354 15.9332 9.98442 14.3035C9.76554 14.2387 9.53645 14.3651 9.46584 14.5897C9.39523 14.8142 9.50838 15.0565 9.72198 15.1381L13.9169 16.5526C13.0259 16.8141 12.1578 17.1536 11.322 17.5673C9.82495 17.8911 8.27419 17.8292 6.80545 17.3872ZM13.5105 25.439C11.9316 27.7012 8.97697 27.0818 8.30393 26.9061C7.93143 26.2956 6.44988 23.5677 8.03302 21.3099C9.4553 19.2804 12.0798 17.967 14.4291 17.3257C14.4672 17.3872 14.6619 17.0709 11.6734 21.3406C11.5615 21.5367 11.6126 21.7889 11.7912 21.9216C11.9697 22.0543 12.2163 22.0232 12.3591 21.8502L14.9539 18.1427C14.9177 19.0978 14.9588 20.0544 15.0767 21.0024C14.9182 22.5934 14.3799 24.1182 13.5105 25.439ZM15.5 17.0621C15.2662 17.0621 15.0767 16.8655 15.0767 16.6229C15.0767 16.3803 15.2662 16.1836 15.5 16.1836C15.7338 16.1836 15.9233 16.3803 15.9233 16.6229C15.9233 16.8655 15.7338 17.0621 15.5 17.0621ZM22.967 21.3099C24.5501 23.5677 23.0686 26.2956 22.6961 26.9061C22.023 27.0818 19.0684 27.7012 17.4895 25.439C16.0503 23.3832 15.682 20.4269 15.7963 17.8967C15.864 17.8967 15.6185 17.5585 18.6239 21.8502C18.7055 21.993 18.8577 22.076 19.0173 22.0645C19.1769 22.0531 19.3167 21.9492 19.3786 21.7961C19.4404 21.643 19.4138 21.4667 19.3097 21.3406L16.7276 17.6332C17.6025 17.9698 18.503 18.2299 19.4197 18.4107C20.812 19.0629 22.0297 20.0582 22.967 21.3099ZM16.7699 16.7063C16.7699 16.6316 16.4524 16.7678 21.2738 15.1381C21.4874 15.0565 21.6005 14.8142 21.5299 14.5897C21.4593 14.3651 21.2302 14.2387 21.0113 14.3035L16.8165 15.7004C17.3875 14.9445 17.8972 14.1408 18.3403 13.2976C19.3713 12.1219 20.663 11.2248 22.1035 10.6839C24.6432 9.80541 26.7047 12.1247 27.1449 12.6782C27.1026 13.3986 26.764 16.5043 24.1818 17.3696C21.8749 18.1735 19.0557 17.6288 16.7699 16.7063Z" fill="#333333" stroke="#333333" stroke-width="0.5"/>
</svg>
