<svg width="120" height="24" viewBox="0 0 120 24" fill="none" xmlns="http://www.w3.org/2000/svg">
<path d="M12 2L15.09 8.25342L22 9.26236L17 14.1272L18.18 21L12 17.7534L5.82 21L7 14.1272L2 9.26236L8.91 8.25342L12 2Z" fill="#FFC549"/>
<path d="M36 2L39.09 8.25342L46 9.26236L41 14.1272L42.18 21L36 17.7534L29.82 21L31 14.1272L26 9.26236L32.91 8.25342L36 2Z" fill="#FFC549"/>
<path d="M60 2L63.09 8.25342L70 9.26236L65 14.1272L66.18 21L60 17.7534L53.82 21L55 14.1272L50 9.26236L56.91 8.25342L60 2Z" fill="#FFC549"/>
<path d="M84 2L87.09 8.25342L94 9.26236L89 14.1272L90.18 21L84 17.7534L77.82 21L79 14.1272L74 9.26236L80.91 8.25342L84 2Z" fill="#FFC549"/>
<path d="M108 2L111.09 8.25342L118 9.26236L113 14.1272L114.18 21L108 17.7534L101.82 21L103 14.1272L98 9.26236L104.91 8.25342L108 2Z" stroke="#FFC549" stroke-linecap="round" stroke-linejoin="round"/>
</svg>
