<svg width="27" height="27" viewBox="0 0 27 27" fill="none" xmlns="http://www.w3.org/2000/svg">
<g clip-path="url(#clip0_3632_450)">
<path d="M13.5 0C6.04423 0 0 6.04423 0 13.5C0 20.9558 6.04423 27 13.5 27C20.9558 27 27 20.9558 27 13.5C27 6.04423 20.9558 0 13.5 0ZM21.094 6.27447L18.0714 20.4698C18.0147 20.7485 17.6971 20.8851 17.4559 20.734L12.8076 17.6511L10.3626 19.9264C10.145 20.1126 9.80798 20.022 9.71325 19.7515L8.1213 14.7306L3.84643 12.9774C3.51845 12.8279 3.52311 12.3056 3.85929 12.175L20.547 5.81344C20.8476 5.69682 21.1581 5.95854 21.094 6.27447Z" fill="#00554E"/>
<path d="M10.228 18.2623L10.4996 15.6813L18.0386 8.31201L8.9375 14.2889L10.228 18.2623Z" fill="#00554E"/>
</g>
<defs>
<clipPath id="clip0_3632_450">
<rect width="27" height="27" fill="white"/>
</clipPath>
</defs>
</svg>
