<svg width="32" height="32" viewBox="0 0 32 32" fill="none" xmlns="http://www.w3.org/2000/svg">
<g clip-path="url(#clip0_3655_2908)">
<path d="M16 0C7.16353 0 0 7.16353 0 16C0 24.8365 7.16353 32 16 32C24.8365 32 32 24.8365 32 16C32 7.16353 24.8365 0 16 0ZM25.0003 7.4364L21.4179 24.2605C21.3507 24.5909 20.9744 24.7528 20.6885 24.5737L15.1794 20.9199L12.2816 23.6165C12.0237 23.8371 11.6243 23.7297 11.512 23.4091L9.62524 17.4585L4.55873 15.3806C4.17002 15.2034 4.17554 14.5844 4.57398 14.4296L24.352 6.89001C24.7083 6.75178 25.0762 7.06197 25.0003 7.4364Z" fill="#EBEBEB"/>
<path d="M12.1194 21.6446L12.4412 18.5855L21.3763 9.85156L10.5898 16.9353L12.1194 21.6446Z" fill="#EBEBEB"/>
</g>
<defs>
<clipPath id="clip0_3655_2908">
<rect width="32" height="32" fill="white"/>
</clipPath>
</defs>
</svg>
