<svg width="40" height="40" viewBox="0 0 40 40" fill="none" xmlns="http://www.w3.org/2000/svg">
<g clip-path="url(#clip0_706_17248)">
<rect width="40" height="40" rx="20" fill="#111111"/>
<path d="M29.9686 15.276C29.2787 15.276 28.5955 15.1401 27.9581 14.8761C27.3208 14.6121 26.7416 14.2251 26.2538 13.7373C25.7659 13.2494 25.3789 12.6703 25.1149 12.0329C24.8509 11.3955 24.715 10.7124 24.715 10.0225H20.9617V24.7199C20.961 25.3899 20.7494 26.0428 20.3569 26.5859C19.9644 27.129 19.4109 27.5348 18.7749 27.7458C18.1389 27.9568 17.4527 27.9623 16.8134 27.7614C16.1741 27.5606 15.6142 27.1637 15.2132 26.6269C14.8121 26.0901 14.5901 25.4407 14.5787 24.7707C14.5673 24.1007 14.7671 23.4441 15.1497 22.894C15.5323 22.3439 16.0784 21.9282 16.7105 21.7057C17.3426 21.4833 18.0286 21.4654 18.6714 21.6547V18.0062C17.3053 17.822 15.9156 18.0589 14.6877 18.6854C13.4598 19.3118 12.4523 20.2979 11.7996 21.5121C11.147 22.7262 10.8802 24.1106 11.0351 25.4803C11.1899 26.85 11.7589 28.1399 12.6661 29.1777C13.5733 30.2155 14.7755 30.9519 16.1123 31.2884C17.449 31.625 18.8566 31.5457 20.1471 31.0613C21.4376 30.5768 22.5495 29.7101 23.3345 28.577C24.1195 27.4439 24.5401 26.0983 24.5402 24.7199L24.6491 17.2907C26.1912 18.4228 28.0551 19.032 29.9682 19.0292L29.9686 15.276Z" fill="url(#paint0_linear_706_17248)"/>
<path d="M28.9762 14.2536C27.5829 14.2535 26.2467 13.7 25.2615 12.7148C24.2763 11.7296 23.7228 10.3933 23.7229 9H19.9695V23.6974C19.9688 24.3675 19.7572 25.0203 19.3648 25.5635C18.9723 26.1066 18.4188 26.5124 17.7828 26.7234C17.1468 26.9344 16.4605 26.9399 15.8212 26.7391C15.182 26.5382 14.6221 26.1413 14.221 25.6045C13.8199 25.0677 13.5979 24.4183 13.5865 23.7483C13.5751 23.0783 13.7749 22.4217 14.1575 21.8716C14.5401 21.3215 15.0862 20.9058 15.7183 20.6833C16.3504 20.4609 17.0364 20.443 17.6792 20.6323V16.9837C16.3132 16.7995 14.9234 17.0364 13.6955 17.6629C12.4677 18.2893 11.4601 19.2755 10.8074 20.4896C10.1548 21.7037 9.88805 23.0881 10.0429 24.4578C10.1977 25.8275 10.7667 27.1174 11.6739 28.1552C12.5811 29.193 13.7834 29.9294 15.1201 30.266C16.4568 30.6025 17.8644 30.5233 19.1549 30.0388C20.4454 29.5543 21.5574 28.6876 22.3424 27.5545C23.1273 26.4214 23.5479 25.0758 23.548 23.6974L23.6575 16.2683C25.1997 17.4004 27.0635 18.0096 28.9766 18.0067L28.9762 14.2536Z" fill="url(#paint1_linear_706_17248)"/>
<path d="M28.9754 15.182C27.6767 14.9322 26.5201 14.2017 25.7364 13.1365C24.7458 12.3613 24.0664 11.2563 23.8216 10.0225H20.9609V24.7199C20.9608 25.4174 20.7325 26.0958 20.3108 26.6514C19.8891 27.207 19.2972 27.6094 18.6254 27.7971C17.9536 27.9848 17.2388 27.9476 16.5901 27.691C15.9415 27.4344 15.3946 26.9727 15.033 26.3762C14.3899 25.9576 13.9189 25.3216 13.7061 24.5844C13.4932 23.8472 13.5527 23.0581 13.8737 22.3611C14.1947 21.6642 14.7557 21.106 15.4543 20.7886C16.1528 20.4711 16.9423 20.4157 17.6784 20.6323V17.9474C16.4158 17.9636 15.1829 18.3325 14.1189 19.0123C13.0548 19.6921 12.2019 20.6559 11.6566 21.7947C11.1112 22.9335 10.895 24.2021 11.0324 25.4573C11.1698 26.7125 11.6553 27.9043 12.4342 28.8982C13.423 29.7232 14.6264 30.2493 15.9035 30.4148C17.1806 30.5802 18.4785 30.3782 19.6448 29.8323C20.8112 29.2865 21.7978 28.4194 22.4889 27.3328C23.1801 26.2463 23.5472 24.9852 23.5472 23.6974L23.6567 16.2683C25.1988 17.4004 27.0627 18.0095 28.9757 18.0067L28.9754 15.182Z" fill="url(#paint2_linear_706_17248)"/>
</g>
<defs>
<linearGradient id="paint0_linear_706_17248" x1="12.4964" y1="29.0287" x2="28.1089" y2="13.4162" gradientUnits="userSpaceOnUse">
<stop stop-color="#B5053C"/>
<stop offset="0.233" stop-color="#C90441"/>
<stop offset="0.737" stop-color="#F0014B"/>
<stop offset="1" stop-color="#FF004F"/>
</linearGradient>
<linearGradient id="paint1_linear_706_17248" x1="11.2716" y1="28.2386" x2="27.7173" y2="11.793" gradientUnits="userSpaceOnUse">
<stop stop-color="#00B2C9"/>
<stop offset="0.283" stop-color="#00C8D4"/>
<stop offset="0.741" stop-color="#00E6E4"/>
<stop offset="1" stop-color="#00F1EA"/>
</linearGradient>
<linearGradient id="paint2_linear_706_17248" x1="2.05713" y1="38.4597" x2="38.4598" y2="2.05705" gradientUnits="userSpaceOnUse">
<stop stop-color="#DDE3E4"/>
<stop offset="1" stop-color="#FCF7F7"/>
</linearGradient>
<clipPath id="clip0_706_17248">
<rect width="40" height="40" fill="white"/>
</clipPath>
</defs>
</svg>
