<svg width="32" height="32" viewBox="0 0 32 32" fill="none" xmlns="http://www.w3.org/2000/svg">
<g clip-path="url(#clip0_3655_2913)">
<path d="M16.6517 6.77539C12.1936 6.77539 8.56803 10.4006 8.56641 14.8568C8.56576 16.3841 8.99308 17.8711 9.80197 19.1579L9.99405 19.4636L9.1777 22.4461L12.2364 21.6437L12.5317 21.8189C13.7724 22.5554 15.1949 22.9448 16.6453 22.9454H16.6485C21.1031 22.9454 24.7286 19.3198 24.7306 14.8633C24.7316 12.7037 23.8915 10.6732 22.3656 9.1456C20.8396 7.6177 18.8104 6.77604 16.6517 6.77539ZM21.4058 18.3315C21.2033 18.899 20.2325 19.4172 19.766 19.4866C19.3474 19.5492 18.8175 19.5752 18.2358 19.3903C17.8831 19.2783 17.4305 19.1287 16.8506 18.8786C14.4129 17.8263 12.8211 15.3721 12.6998 15.2102C12.5784 15.0479 11.7076 13.8928 11.7076 12.6969C11.7076 11.5009 12.3351 10.9133 12.558 10.6699C12.7806 10.4266 13.044 10.3659 13.2059 10.3659C13.3678 10.3659 13.5301 10.3675 13.6715 10.3744C13.8208 10.3818 14.021 10.3179 14.2183 10.7913C14.4207 11.278 14.9068 12.4736 14.9674 12.5953C15.0281 12.717 15.0687 12.8588 14.9876 13.021C14.9064 13.1829 14.8662 13.2845 14.7445 13.4263C14.6229 13.5681 14.4895 13.7429 14.3802 13.852C14.2585 13.973 14.132 14.1047 14.2737 14.3477C14.4155 14.5911 14.9032 15.3867 15.6255 16.0307C16.5534 16.8585 17.3364 17.1151 17.5794 17.2368C17.8224 17.3585 17.9642 17.338 18.1057 17.1761C18.2475 17.0139 18.7131 16.4665 18.875 16.2235C19.0369 15.9805 19.1988 16.0207 19.4217 16.1018C19.6443 16.1829 20.839 16.7705 21.082 16.8922C21.325 17.0139 21.4869 17.0745 21.5476 17.1761C21.6083 17.2773 21.6083 17.764 21.4058 18.3315Z" fill="#EBEBEB"/>
<path d="M16 0C7.16353 0 0 7.16353 0 16C0 24.8365 7.16353 32 16 32C24.8365 32 32 24.8365 32 16C32 7.16353 24.8365 0 16 0ZM16.6483 24.5876C16.648 24.5876 16.6486 24.5876 16.6483 24.5876H16.6444C15.0169 24.587 13.4179 24.1788 11.9977 23.404L6.84296 24.7563L8.22258 19.7174C7.37151 18.2427 6.92375 16.5698 6.92472 14.8563C6.92635 9.49481 11.2888 5.13303 16.6483 5.13303C19.2495 5.134 21.6911 6.14666 23.5269 7.98475C25.3628 9.82252 26.3735 12.2657 26.3722 14.864C26.3699 20.2255 22.0075 24.5876 16.6483 24.5876Z" fill="#EBEBEB"/>
</g>
<defs>
<clipPath id="clip0_3655_2913">
<rect width="32" height="32" fill="white"/>
</clipPath>
</defs>
</svg>
