<svg width="27" height="27" viewBox="0 0 27 27" fill="none" xmlns="http://www.w3.org/2000/svg">
<g clip-path="url(#clip0_3632_455)">
<path d="M14.0486 5.7168C10.287 5.7168 7.22793 8.7756 7.22656 12.5355C7.22602 13.8241 7.58657 15.0788 8.26907 16.1646L8.43114 16.4225L7.74234 18.9389L10.3231 18.2619L10.5723 18.4097C11.6192 19.0312 12.8194 19.3597 14.0431 19.3603H14.0458C17.8044 19.3603 20.8635 16.3012 20.8651 12.541C20.8659 10.7188 20.1571 9.00556 18.8696 7.71667C17.5821 6.4275 15.8699 5.71734 14.0486 5.7168ZM18.0598 15.4673C17.889 15.9461 17.0699 16.3833 16.6762 16.4419C16.323 16.4947 15.876 16.5166 15.3851 16.3606C15.0875 16.2661 14.7056 16.1399 14.2164 15.9289C12.1596 15.041 10.8165 12.9703 10.7141 12.8336C10.6117 12.6968 9.8769 11.7222 9.8769 10.713C9.8769 9.70394 10.4064 9.20815 10.5944 9.00282C10.7822 8.7975 11.0045 8.7463 11.1412 8.7463C11.2778 8.7463 11.4147 8.74767 11.534 8.75342C11.6599 8.75972 11.8289 8.70579 11.9953 9.10521C12.1661 9.51586 12.5762 10.5247 12.6274 10.6274C12.6786 10.73 12.7129 10.8497 12.6444 10.9865C12.576 11.1231 12.542 11.2088 12.4394 11.3285C12.3367 11.4481 12.2242 11.5957 12.1319 11.6877C12.0293 11.7898 11.9225 11.9009 12.0421 12.106C12.1618 12.3113 12.5732 12.9826 13.1826 13.526C13.9656 14.2244 14.6262 14.4409 14.8313 14.5436C15.0363 14.6463 15.156 14.629 15.2753 14.4924C15.395 14.3555 15.7878 13.8937 15.9244 13.6886C16.061 13.4836 16.1976 13.5175 16.3857 13.586C16.5735 13.6544 17.5815 14.1502 17.7866 14.2529C17.9916 14.3555 18.1282 14.4067 18.1794 14.4924C18.2306 14.5778 18.2306 14.9885 18.0598 15.4673Z" fill="#00554E"/>
<path d="M13.5 0C6.04423 0 0 6.04423 0 13.5C0 20.9558 6.04423 27 13.5 27C20.9558 27 27 20.9558 27 13.5C27 6.04423 20.9558 0 13.5 0ZM14.047 20.7458C14.0467 20.7458 14.0473 20.7458 14.047 20.7458H14.0437C12.6705 20.7452 11.3214 20.4008 10.1231 19.7471L5.77375 20.8882L6.9378 16.6365C6.21971 15.3923 5.84191 13.9807 5.84274 12.535C5.8441 8.01124 9.5249 4.33099 14.047 4.33099C16.2418 4.33182 18.3019 5.18624 19.8508 6.73713C21.3998 8.28775 22.2526 10.3492 22.2515 12.5415C22.2496 17.0653 18.5688 20.7458 14.047 20.7458Z" fill="#00554E"/>
</g>
<defs>
<clipPath id="clip0_3632_455">
<rect width="27" height="27" fill="white"/>
</clipPath>
</defs>
</svg>
