<svg width="27" height="27" viewBox="0 0 27 27" fill="none" xmlns="http://www.w3.org/2000/svg">
<g clip-path="url(#clip0_3632_448)">
<path d="M13.5 0C6.04423 0 0 6.04423 0 13.5C0 20.9558 6.04423 27 13.5 27C20.9558 27 27 20.9558 27 13.5C27 6.04423 20.9558 0 13.5 0ZM19.3542 15.2844C19.4605 15.4158 19.7131 15.6718 20.1128 16.0529H20.1222L20.1315 16.0619L20.1408 16.0715L20.1597 16.0901C21.0401 16.9081 21.6364 17.5983 21.9487 18.1603C21.9676 18.1913 21.9879 18.2307 22.0098 18.2775C22.0314 18.3243 22.0533 18.407 22.0752 18.5255C22.0968 18.6446 22.0952 18.7503 22.0705 18.8439C22.0456 18.9373 21.9676 19.0238 21.8365 19.1015C21.7053 19.1798 21.5211 19.2187 21.2837 19.2187L18.8858 19.2565C18.7361 19.2877 18.5611 19.2721 18.3613 19.2097C18.1612 19.147 17.9991 19.0783 17.8742 19.0035L17.6867 18.8907C17.4992 18.7596 17.2807 18.5598 17.031 18.2915C16.7811 18.0229 16.5673 17.7809 16.3893 17.5654C16.2114 17.35 16.0208 17.1693 15.8177 17.022C15.6146 16.8753 15.4383 16.8268 15.2885 16.8769C15.2699 16.8835 15.2447 16.8944 15.2135 16.9098C15.182 16.9254 15.1292 16.9703 15.0542 17.0456C14.9792 17.1206 14.9121 17.2128 14.8527 17.3218C14.7933 17.4313 14.7402 17.5936 14.6934 17.8091C14.6465 18.0243 14.626 18.2666 14.6326 18.5351C14.6326 18.6285 14.6213 18.7147 14.5997 18.7927C14.5778 18.8708 14.5543 18.9285 14.5294 18.9658L14.4919 19.0126C14.3793 19.1317 14.214 19.2001 13.9955 19.2187H12.9182C12.4747 19.2439 12.0189 19.1924 11.5508 19.0643C11.0826 18.9359 10.6717 18.7708 10.3191 18.5677C9.96594 18.3651 9.64454 18.159 9.35435 17.9498C9.06388 17.7404 8.84377 17.5611 8.69402 17.4113L8.45995 17.1863C8.39753 17.1241 8.31157 17.0302 8.20233 16.9051C8.0931 16.7803 7.86998 16.4964 7.5327 16.0529C7.19542 15.6094 6.86443 15.1382 6.53975 14.6383C6.21506 14.1387 5.83261 13.4797 5.39212 12.6617C4.9519 11.844 4.54453 10.9948 4.16975 10.114C4.13224 10.0144 4.11335 9.93008 4.11335 9.86136C4.11335 9.79292 4.12266 9.74282 4.14155 9.71134L4.17905 9.65522C4.27268 9.5364 4.45063 9.47699 4.7129 9.47699L7.27947 9.45838C7.35448 9.47097 7.4262 9.49123 7.49492 9.51943C7.56364 9.54735 7.61373 9.57391 7.64494 9.59882L7.69176 9.62702C7.79168 9.69601 7.86642 9.79566 7.91652 9.92679C8.04136 10.2394 8.18509 10.5625 8.34743 10.8965C8.50977 11.2305 8.6379 11.4851 8.73153 11.6597L8.88128 11.9316C9.06224 12.3061 9.23717 12.6311 9.40581 12.9057C9.57473 13.1805 9.72585 13.3946 9.86027 13.5474C9.99441 13.7004 10.1239 13.8209 10.249 13.9079C10.3739 13.9955 10.4801 14.0393 10.5677 14.0393C10.655 14.0393 10.7393 14.0237 10.8206 13.9925C10.833 13.9862 10.8486 13.9706 10.8675 13.9457C10.8863 13.9208 10.9236 13.8521 10.98 13.7393C11.0361 13.627 11.0783 13.4803 11.1065 13.2991C11.1347 13.1184 11.1642 12.8654 11.1954 12.5407C11.2266 12.2158 11.2266 11.8256 11.1954 11.3698C11.1828 11.1199 11.1546 10.8921 11.1111 10.6859C11.0673 10.4801 11.0235 10.3363 10.98 10.255L10.9236 10.1428C10.7675 9.93062 10.5023 9.79621 10.1275 9.73981C10.0462 9.72776 10.0618 9.65275 10.1743 9.51532C10.2805 9.39651 10.399 9.30315 10.5302 9.23416C10.8612 9.07209 11.6074 8.99708 12.769 9.00913C13.281 9.0157 13.7026 9.05594 14.0336 9.13095C14.1584 9.16243 14.263 9.20432 14.3473 9.25743C14.4316 9.31027 14.4957 9.38555 14.5395 9.48192C14.583 9.57883 14.6159 9.67876 14.6378 9.7817C14.6597 9.88491 14.6706 10.0273 14.6706 10.208C14.6706 10.3892 14.6676 10.5611 14.6613 10.7232C14.655 10.8855 14.6474 11.1059 14.638 11.3835C14.6287 11.6614 14.6238 11.9193 14.6238 12.1564C14.6238 12.2253 14.6208 12.3562 14.6145 12.5498C14.6082 12.7436 14.6063 12.8933 14.6099 12.9993C14.6129 13.1055 14.6238 13.2323 14.6424 13.3787C14.6613 13.5255 14.6972 13.6476 14.7503 13.7439C14.8031 13.8408 14.8735 13.9172 14.9611 13.9733C15.0109 13.9862 15.064 13.9985 15.1204 14.0111C15.1765 14.0234 15.2576 13.9895 15.3638 13.9079C15.4698 13.8269 15.5886 13.719 15.7197 13.5849C15.8508 13.451 16.0132 13.2418 16.2067 12.9574C16.4 12.6738 16.6125 12.3379 16.8435 11.9505C17.2183 11.3011 17.5523 10.5983 17.8458 9.84275C17.8707 9.78005 17.9019 9.72557 17.9394 9.67876C17.9769 9.63167 18.0111 9.59882 18.0423 9.5802L18.0798 9.552C18.0922 9.54571 18.1078 9.53804 18.1267 9.52874C18.1456 9.5197 18.1861 9.51012 18.2485 9.50054C18.3109 9.4915 18.3733 9.48986 18.436 9.49616L21.1337 9.47699C21.3771 9.44606 21.5769 9.45372 21.733 9.50026C21.889 9.54708 21.986 9.59882 22.0235 9.65494L22.0799 9.74857C22.2233 10.1485 21.7552 11.0659 20.6749 12.5024C20.5249 12.7025 20.3217 12.9681 20.066 13.2988C19.579 13.9235 19.2981 14.3325 19.2236 14.5266C19.1169 14.7821 19.1607 15.035 19.3542 15.2844Z" fill="#00554E"/>
</g>
<defs>
<clipPath id="clip0_3632_448">
<rect width="27" height="27" fill="white"/>
</clipPath>
</defs>
</svg>
