<svg width="32" height="32" viewBox="0 0 32 32" fill="none" xmlns="http://www.w3.org/2000/svg">
<g clip-path="url(#clip0_3655_2906)">
<path d="M16 0C7.16353 0 0 7.16353 0 16C0 24.8365 7.16353 32 16 32C24.8365 32 32 24.8365 32 16C32 7.16353 24.8365 0 16 0ZM22.9384 18.1149C23.0642 18.2706 23.3637 18.574 23.8374 19.0256H23.8485L23.8595 19.0363L23.8705 19.0477L23.8929 19.0698C24.9364 20.0393 25.6431 20.8572 26.0133 21.5234C26.0357 21.56 26.0597 21.6067 26.0857 21.6622C26.1113 21.7177 26.1372 21.8157 26.1632 21.9562C26.1888 22.0973 26.1869 22.2226 26.1577 22.3335C26.1282 22.4442 26.0357 22.5467 25.8803 22.6389C25.7249 22.7317 25.5065 22.7777 25.2252 22.7777L22.3832 22.8225C22.2057 22.8595 21.9984 22.841 21.7615 22.767C21.5243 22.6927 21.3323 22.6113 21.1843 22.5227L20.962 22.389C20.7398 22.2336 20.4809 21.9968 20.1849 21.6788C19.8887 21.3605 19.6353 21.0737 19.4244 20.8183C19.2135 20.5629 18.9877 20.3488 18.7469 20.1742C18.5062 20.0003 18.2972 19.9429 18.1197 20.0023C18.0977 20.0101 18.0678 20.023 18.0308 20.0412C17.9935 20.0597 17.9309 20.1129 17.842 20.2021C17.7531 20.291 17.6736 20.4004 17.6032 20.5295C17.5328 20.6593 17.4698 20.8517 17.4143 21.1071C17.3589 21.3621 17.3345 21.6493 17.3423 21.9676C17.3423 22.0782 17.329 22.1804 17.3034 22.2729C17.2774 22.3653 17.2495 22.4338 17.22 22.4779L17.1755 22.5334C17.0422 22.6746 16.8462 22.7557 16.5873 22.7777H15.3105C14.7849 22.8076 14.2446 22.7466 13.6898 22.5947C13.135 22.4426 12.648 22.2469 12.23 22.0062C11.8115 21.7661 11.4306 21.5217 11.0866 21.2738C10.7424 21.0256 10.4815 20.8131 10.304 20.6356L10.0266 20.3689C9.95263 20.2953 9.85075 20.184 9.72128 20.0357C9.59182 19.8877 9.32738 19.5513 8.92764 19.0256C8.5279 18.5 8.13563 17.9416 7.75081 17.3491C7.366 16.757 6.91272 15.976 6.39066 15.0065C5.86892 14.0373 5.38611 13.0308 4.94192 11.987C4.89747 11.8689 4.87508 11.769 4.87508 11.6875C4.87508 11.6064 4.88611 11.547 4.9085 11.5097L4.95295 11.4432C5.06392 11.3024 5.27482 11.232 5.58566 11.232L8.62751 11.2099C8.71642 11.2249 8.80143 11.2489 8.88287 11.2823C8.96431 11.3154 9.02369 11.3469 9.06067 11.3764L9.11616 11.4098C9.23459 11.4916 9.32317 11.6097 9.38254 11.7651C9.5305 12.1356 9.70084 12.5185 9.89325 12.9143C10.0857 13.3102 10.2375 13.6119 10.3485 13.8189L10.526 14.1411C10.7404 14.585 10.9478 14.9701 11.1476 15.2956C11.3478 15.6213 11.5269 15.8751 11.6862 16.0561C11.8452 16.2375 11.9987 16.3803 12.147 16.4835C12.2949 16.5873 12.4208 16.6392 12.5247 16.6392C12.6282 16.6392 12.7281 16.6207 12.8245 16.5837C12.8391 16.5762 12.8576 16.5578 12.8799 16.5282C12.9023 16.4987 12.9465 16.4173 13.0133 16.2836C13.0798 16.1506 13.1298 15.9766 13.1632 15.7618C13.1966 15.5477 13.2317 15.2479 13.2687 14.8631C13.3056 14.4779 13.3056 14.0156 13.2687 13.4753C13.2537 13.1791 13.2203 12.9092 13.1687 12.6648C13.1168 12.4208 13.0649 12.2505 13.0133 12.1541L12.9465 12.0211C12.7615 11.7696 12.4471 11.6103 12.0029 11.5435C11.9066 11.5292 11.925 11.4403 12.0584 11.2774C12.1843 11.1366 12.3248 11.026 12.4802 10.9442C12.8725 10.7521 13.757 10.6632 15.1337 10.6775C15.7404 10.6853 16.2401 10.733 16.6324 10.8219C16.7803 10.8592 16.9043 10.9088 17.0042 10.9718C17.1042 11.0344 17.1801 11.1236 17.232 11.2378C17.2836 11.3527 17.3225 11.4711 17.3485 11.5931C17.3744 11.7154 17.3874 11.8842 17.3874 12.0983C17.3874 12.3131 17.3838 12.5169 17.3764 12.709C17.3689 12.9014 17.3598 13.1626 17.3488 13.4916C17.3378 13.8209 17.3319 14.1265 17.3319 14.4075C17.3319 14.4893 17.3284 14.6444 17.3209 14.8738C17.3134 15.1035 17.3112 15.281 17.3154 15.4066C17.3189 15.5324 17.3319 15.6827 17.354 15.8563C17.3764 16.0302 17.4189 16.1749 17.4818 16.2891C17.5445 16.404 17.6278 16.4945 17.7317 16.561C17.7907 16.5762 17.8537 16.5908 17.9205 16.6058C17.987 16.6204 18.0831 16.5801 18.209 16.4835C18.3345 16.3874 18.4753 16.2596 18.6308 16.1006C18.7862 15.9419 18.9786 15.694 19.208 15.3569C19.4371 15.0208 19.6888 14.6226 19.9627 14.1635C20.4069 13.3939 20.8027 12.561 21.1505 11.6655C21.1801 11.5912 21.2171 11.5266 21.2615 11.4711C21.306 11.4153 21.3465 11.3764 21.3835 11.3543L21.428 11.3209C21.4426 11.3134 21.4611 11.3043 21.4834 11.2933C21.5058 11.2826 21.5539 11.2713 21.6278 11.2599C21.7018 11.2492 21.7758 11.2472 21.8501 11.2547L25.0474 11.232C25.3358 11.1953 25.5727 11.2044 25.7576 11.2596C25.9426 11.3151 26.0574 11.3764 26.1019 11.4429L26.1687 11.5539C26.3387 12.0279 25.7839 13.1152 24.5036 14.8176C24.3258 15.0548 24.085 15.3696 23.782 15.7615C23.2047 16.5019 22.8718 16.9867 22.7836 17.2167C22.657 17.5195 22.709 17.8193 22.9384 18.1149Z" fill="#EBEBEB"/>
</g>
<defs>
<clipPath id="clip0_3655_2906">
<rect width="32" height="32" fill="white"/>
</clipPath>
</defs>
</svg>
